<svg width="149" height="43" viewBox="0 0 149 43" fill="none" xmlns="http://www.w3.org/2000/svg">
<path d="M41.4797 24.997L41.5311 22.4975L41.4797 24.997ZM1.26892 22.4029C0.272768 23.3589 0.24026 24.9415 1.19631 25.9376L16.7761 42.1709C17.7322 43.1671 19.3148 43.1996 20.3109 42.2435C21.3071 41.2875 21.3396 39.7049 20.3835 38.7088L6.5348 24.2792L20.9644 10.4305C21.9605 9.4744 21.9931 7.89182 21.037 6.89566C20.0809 5.89951 18.4984 5.867 17.5022 6.82306L1.26892 22.4029ZM115.049 26.5083L115.1 24.0088L115.049 26.5083ZM96.6166 15.9996L94.4919 17.317L94.4919 17.317L96.6166 15.9996ZM94.6053 12.7557L96.73 11.4383L96.73 11.4383L94.6053 12.7557ZM59.7232 14.1333L57.5012 12.9876L57.5012 12.9876L59.7232 14.1333ZM41.5311 22.4975L3.05136 21.7071L2.94867 26.706L41.4284 27.4965L41.5311 22.4975ZM148.02 24.6851L115.1 24.0088L114.998 29.0078L147.918 29.684L148.02 24.6851ZM98.7413 14.6822L96.73 11.4383L92.4806 14.0732L94.4919 17.317L98.7413 14.6822ZM115.1 24.0088C108.42 23.8716 102.263 20.3613 98.7413 14.6822L94.4919 17.317C98.9057 24.4357 106.623 28.8358 114.998 29.0078L115.1 24.0088ZM61.9452 15.2791C68.1988 3.15101 85.29 2.47603 92.4806 14.0732L96.73 11.4383C87.4922 -3.46048 65.5352 -2.59334 57.5012 12.9876L61.9452 15.2791ZM41.4284 27.4965C50.0385 27.6733 57.9984 22.9334 61.9452 15.2791L57.5012 12.9876C54.429 18.9456 48.2331 22.6352 41.5311 22.4975L41.4284 27.4965Z" fill="black"/>
</svg>
