<svg width="149" height="45" viewBox="0 0 149 45" fill="none" xmlns="http://www.w3.org/2000/svg">
<path d="M107.051 19.4211L107.061 21.9211L107.051 19.4211ZM147.313 21.0177C148.286 20.0373 148.279 18.4544 147.298 17.4822L131.321 1.64011C130.341 0.667959 128.758 0.674688 127.786 1.65514C126.813 2.63559 126.82 4.21849 127.801 5.19064L142.003 19.2725L127.921 33.4747C126.949 34.4551 126.955 36.038 127.936 37.0102C128.916 37.9823 130.499 37.9756 131.471 36.9951L147.313 21.0177ZM33.4665 19.7338L33.4771 22.2338L33.4665 19.7338ZM52.1538 29.7824L54.2452 28.4127L54.2452 28.4127L52.1538 29.7824ZM54.2449 32.9754L52.1535 34.3451L52.1535 34.3451L54.2449 32.9754ZM89.0822 30.7336L91.3319 31.8239L91.3319 31.8239L89.0822 30.7336ZM107.061 21.9211L145.549 21.7575L145.528 16.7575L107.04 16.9211L107.061 21.9211ZM0.550424 22.3737L33.4771 22.2338L33.4559 17.2338L0.529174 17.3738L0.550424 22.3737ZM50.0624 31.1521L52.1535 34.3451L56.3363 31.6058L54.2452 28.4127L50.0624 31.1521ZM33.4771 22.2338C40.1592 22.2054 46.4014 25.562 50.0624 31.1521L54.2452 28.4127C49.6563 21.4056 41.8318 17.1982 33.4559 17.2338L33.4771 22.2338ZM86.8325 29.6433C80.8814 41.9227 63.8122 43.0211 56.3363 31.6058L52.1535 34.3451C61.7577 49.0103 83.6865 47.5992 91.3319 31.8239L86.8325 29.6433ZM107.04 16.9211C98.4282 16.9578 90.5883 21.8935 86.8325 29.6433L91.3319 31.8239C94.2554 25.7916 100.358 21.9496 107.061 21.9211L107.04 16.9211Z" fill="black"/>
</svg>
