<svg width="50" height="35" viewBox="0 0 50 35" fill="none" xmlns="http://www.w3.org/2000/svg">
<path d="M45.8333 0H14.5833C13.1458 0 12.0208 0.680556 11.2708 1.71111L0 17.5L11.2708 33.2694C12.0208 34.3 13.1458 35 14.5833 35H45.8333C46.9384 35 47.9982 34.5903 48.7796 33.861C49.561 33.1317 50 32.1425 50 31.1111V3.88889C50 2.85749 49.561 1.86834 48.7796 1.13903C47.9982 0.409721 46.9384 0 45.8333 0ZM39.5833 24.4806L36.6458 27.2222L29.1667 20.2417L21.6875 27.2222L18.75 24.4806L26.2292 17.5L18.75 10.5194L21.6875 7.77778L29.1667 14.7583L36.6458 7.77778L39.5833 10.5194L32.1042 17.5" fill="black"/>
</svg>
