<svg width="41" height="121" viewBox="0 0 41 121" fill="none" xmlns="http://www.w3.org/2000/svg">
<path d="M19.0049 86.9085L16.5049 86.9112L16.5049 86.9112L19.0049 86.9085ZM20.8078 119.45C19.8325 120.427 18.2496 120.429 17.2722 119.454L1.3452 103.561C0.367841 102.586 0.366136 101.003 1.3414 100.025C2.31665 99.048 3.89957 99.0463 4.87693 100.022L19.0343 114.148L33.1612 99.9911C34.1364 99.0137 35.7194 99.012 36.6967 99.9873C37.6741 100.963 37.6758 102.545 36.7005 103.523L20.8078 119.45ZM18.9396 26.3701L16.4396 26.3728L16.4396 26.3728L18.9396 26.3701ZM28.0386 41.5959L26.852 43.7964L26.852 43.7964L28.0386 41.5959ZM29.3115 42.2824L30.4982 40.0819L30.4982 40.0819L29.3115 42.2824ZM28.5158 71.8873L27.4491 69.6263L27.4491 69.6263L28.5158 71.8873ZM21.5049 86.9059L21.5381 117.681L16.5381 117.687L16.5049 86.9112L21.5049 86.9059ZM21.4115 0.247368L21.4396 26.3675L16.4396 26.3728L16.4115 0.252759L21.4115 0.247368ZM29.2252 39.3955L30.4982 40.0819L28.1249 44.4828L26.852 43.7964L29.2252 39.3955ZM21.4396 26.3675C21.4455 31.8103 24.4345 36.812 29.2252 39.3955L26.852 43.7964C20.445 40.3413 16.4475 33.6521 16.4396 26.3728L21.4396 26.3675ZM27.4491 69.6263C37.902 64.6948 38.2978 49.9687 28.1249 44.4828L30.4982 40.0819C44.2811 47.5147 43.7449 67.4667 29.5826 74.1483L27.4491 69.6263ZM16.5049 86.9112C16.497 79.5161 20.761 72.7817 27.4491 69.6263L29.5826 74.1483C24.6462 76.4772 21.4991 81.4477 21.5049 86.9059L16.5049 86.9112Z" fill="black"/>
</svg>
