<svg width="21" height="21" viewBox="0 0 21 21" fill="none" xmlns="http://www.w3.org/2000/svg">
<path d="M9.19668 14.7271L16.2467 7.67708L14.8467 6.27708L9.19668 11.9271L6.34668 9.07708L4.94668 10.4771L9.19668 14.7271ZM10.5967 20.1271C9.21335 20.1271 7.91335 19.8646 6.69668 19.3396C5.48001 18.8146 4.42168 18.1021 3.52168 17.2021C2.62168 16.3021 1.90918 15.2437 1.38418 14.0271C0.85918 12.8104 0.59668 11.5104 0.59668 10.1271C0.59668 8.74374 0.85918 7.44374 1.38418 6.22708C1.90918 5.01041 2.62168 3.95208 3.52168 3.05208C4.42168 2.15208 5.48001 1.43958 6.69668 0.914575C7.91335 0.389575 9.21335 0.127075 10.5967 0.127075C11.98 0.127075 13.28 0.389575 14.4967 0.914575C15.7133 1.43958 16.7717 2.15208 17.6717 3.05208C18.5717 3.95208 19.2842 5.01041 19.8092 6.22708C20.3342 7.44374 20.5967 8.74374 20.5967 10.1271C20.5967 11.5104 20.3342 12.8104 19.8092 14.0271C19.2842 15.2437 18.5717 16.3021 17.6717 17.2021C16.7717 18.1021 15.7133 18.8146 14.4967 19.3396C13.28 19.8646 11.98 20.1271 10.5967 20.1271ZM10.5967 18.1271C12.83 18.1271 14.7217 17.3521 16.2717 15.8021C17.8217 14.2521 18.5967 12.3604 18.5967 10.1271C18.5967 7.89374 17.8217 6.00208 16.2717 4.45208C14.7217 2.90208 12.83 2.12708 10.5967 2.12708C8.36335 2.12708 6.47168 2.90208 4.92168 4.45208C3.37168 6.00208 2.59668 7.89374 2.59668 10.1271C2.59668 12.3604 3.37168 14.2521 4.92168 15.8021C6.47168 17.3521 8.36335 18.1271 10.5967 18.1271Z" fill="#1C1B1F"/>
</svg>
