<svg width="23" height="23" viewBox="0 0 23 23" fill="none" xmlns="http://www.w3.org/2000/svg">
<path d="M20.4444 20.7H2.55556V8.05H20.4444M16.6111 0V2.3H6.38889V0H3.83333V2.3H2.55556C1.13722 2.3 0 3.3235 0 4.6V20.7C0 21.31 0.269245 21.895 0.748505 22.3263C1.22776 22.7577 1.87778 23 2.55556 23H20.4444C21.1222 23 21.7722 22.7577 22.2515 22.3263C22.7308 21.895 23 21.31 23 20.7V4.6C23 3.3235 21.85 2.3 20.4444 2.3H19.1667V0M17.8889 12.65H11.5V18.4H17.8889V12.65Z" fill="black" fill-opacity="0.7"/>
</svg>
