<svg width="21" height="21" viewBox="0 0 21 21" fill="none" xmlns="http://www.w3.org/2000/svg">
<path d="M18.6667 0C19.2855 0 19.879 0.245833 20.3166 0.683417C20.7542 1.121 21 1.71449 21 2.33333V18.6667C21 19.9617 19.95 21 18.6667 21H2.33333C1.71449 21 1.121 20.7542 0.683417 20.3166C0.245833 19.879 0 19.2855 0 18.6667V2.33333C0 1.71449 0.245833 1.121 0.683417 0.683417C1.121 0.245833 1.71449 0 2.33333 0H18.6667ZM15.9833 7.40833C16.24 7.16333 16.24 6.755 15.9833 6.51L14.49 5.01667C14.245 4.76 13.8367 4.76 13.5917 5.01667L12.425 6.18333L14.8167 8.575L15.9833 7.40833ZM4.66667 13.93V16.3333H7.07L14.14 9.26333L11.7367 6.86L4.66667 13.93Z" fill="black"/>
</svg>
