<svg width="21" height="21" viewBox="0 0 21 21" fill="none" xmlns="http://www.w3.org/2000/svg">
<path d="M18.6667 0H2.33333C1.03833 0 0 1.03833 0 2.33333V7H2.33333V2.33333H18.6667V18.6667H2.33333V14H0V18.6667C0 19.2855 0.245833 19.879 0.683417 20.3166C1.121 20.7542 1.71449 21 2.33333 21H18.6667C19.2855 21 19.879 20.7542 20.3166 20.3166C20.7542 19.879 21 19.2855 21 18.6667V2.33333C21 1.03833 19.95 0 18.6667 0ZM8.26 14.6767L9.91667 16.3333L15.75 10.5L9.91667 4.66667L8.26 6.31167L11.2817 9.33333H0V11.6667H11.2817L8.26 14.6767Z" fill="black"/>
</svg>
