<svg width="214" height="428" viewBox="0 0 214 428" fill="none" xmlns="http://www.w3.org/2000/svg">
<rect width="214" height="428" rx="30" fill="black"/>
<path d="M6.98773 31.1774C6.98773 17.3703 18.1806 6.17734 31.9877 6.17734H182.886C196.693 6.17734 207.886 17.3702 207.886 31.1773V397.705C207.886 411.512 196.693 422.705 182.886 422.705H31.9877C18.1806 422.705 6.98773 411.512 6.98773 397.705V31.1774Z" fill="white"/>
<path d="M134.535 87.1714C134.535 91.5136 131.292 94.9007 127.449 94.9007C123.606 94.9007 120.363 91.5136 120.363 87.1714C120.363 82.8291 123.606 79.4421 127.449 79.4421C131.292 79.4421 134.535 82.8291 134.535 87.1714Z" fill="white" stroke="black" stroke-width="2"/>
<path d="M138.69 99.2096C137.855 99.7086 140.95 96.4235 138.69 91.8151C136.43 87.2067 135.274 83.0663 136.109 82.5674C136.944 82.0684 139.454 85.3998 141.714 90.0083C143.975 94.6167 139.525 98.7107 138.69 99.2096Z" fill="#D9D9D9"/>
<path d="M124.72 112.9C123.524 113.136 119.676 109.726 118.841 104.567C118.006 99.4086 120.499 94.4547 121.695 94.2188C122.891 93.9828 120.414 99.3073 121.249 104.466C122.085 109.625 125.916 112.664 124.72 112.9Z" fill="#D9D9D9"/>
<path d="M133.418 114.239C132.222 114.475 128.375 111.065 127.539 105.907C126.704 100.748 129.197 95.7943 130.393 95.5583C131.589 95.3224 129.112 100.647 129.948 105.806C130.783 110.964 134.615 114.003 133.418 114.239Z" fill="#D9D9D9"/>
<path d="M118.201 82.9351C117.396 83.4911 114.702 80.3406 112.183 75.8983C109.664 71.4561 113.271 64.8802 114.076 64.3243C114.881 63.7683 112.579 69.4427 115.098 73.885C117.617 78.3273 119.006 82.3791 118.201 82.9351Z" fill="#D9D9D9"/>
<ellipse cx="6.56503" cy="5.75666" rx="6.56503" ry="5.75666" transform="matrix(0.943407 -0.331639 0.277279 0.960789 121.756 68.2475)" fill="#D9D9D9"/>
<path d="M83.7479 83.8368C84.2745 83.8368 84.7245 83.9268 85.0979 84.1068C85.4712 84.2801 85.7579 84.5334 85.9579 84.8668C86.1645 85.2001 86.2679 85.6034 86.2679 86.0768C86.2679 86.3634 86.2245 86.6468 86.1379 86.9268C86.0512 87.2001 85.9112 87.4501 85.7179 87.6768C85.5312 87.8968 85.2845 88.0734 84.9779 88.2068C84.6712 88.3401 84.2979 88.4068 83.8579 88.4068H82.7879V91.0668H81.8179V83.8368H83.7479ZM83.8479 87.4768C84.1345 87.4768 84.3712 87.4301 84.5579 87.3368C84.7445 87.2434 84.8912 87.1268 84.9979 86.9868C85.1045 86.8401 85.1812 86.6868 85.2279 86.5268C85.2745 86.3668 85.2979 86.2234 85.2979 86.0968C85.2979 85.9501 85.2745 85.8001 85.2279 85.6468C85.1812 85.4868 85.1012 85.3434 84.9879 85.2168C84.8812 85.0834 84.7379 84.9768 84.5579 84.8968C84.3845 84.8101 84.1679 84.7668 83.9079 84.7668H82.7879V87.4768H83.8479ZM89.4551 91.1668C88.9818 91.1668 88.5751 91.0734 88.2351 90.8868C87.8951 90.6934 87.6318 90.4334 87.4451 90.1068C87.2651 89.7734 87.1751 89.3934 87.1751 88.9668C87.1751 88.5601 87.2785 88.1901 87.4851 87.8568C87.6918 87.5234 87.9685 87.2568 88.3151 87.0568C88.6618 86.8568 89.0485 86.7568 89.4751 86.7568C90.0218 86.7568 90.4751 86.9168 90.8351 87.2368C91.1951 87.5568 91.4385 87.9968 91.5651 88.5568L88.1551 89.7568L87.9351 89.2068L90.7351 88.1868L90.5351 88.3168C90.4551 88.0968 90.3218 87.9068 90.1351 87.7468C89.9485 87.5801 89.7051 87.4968 89.4051 87.4968C89.1518 87.4968 88.9251 87.5601 88.7251 87.6868C88.5251 87.8068 88.3685 87.9734 88.2551 88.1868C88.1418 88.4001 88.0851 88.6434 88.0851 88.9168C88.0851 89.2034 88.1451 89.4568 88.2651 89.6768C88.3851 89.8901 88.5485 90.0601 88.7551 90.1868C88.9685 90.3068 89.2085 90.3668 89.4751 90.3668C89.6551 90.3668 89.8285 90.3334 89.9951 90.2668C90.1685 90.2001 90.3285 90.1134 90.4751 90.0068L90.9051 90.6968C90.6985 90.8368 90.4651 90.9501 90.2051 91.0368C89.9518 91.1234 89.7018 91.1668 89.4551 91.1668ZM95.1704 91.1668C94.8571 91.1668 94.5538 91.0934 94.2604 90.9468C93.9738 90.8001 93.7504 90.6034 93.5904 90.3568L93.6504 90.0668V93.0568H92.7304V86.8668H93.5304L93.6604 87.9268L93.5604 87.6368C93.7604 87.3834 94.0138 87.1734 94.3204 87.0068C94.6271 86.8401 94.9704 86.7568 95.3504 86.7568C95.7371 86.7568 96.0838 86.8501 96.3904 87.0368C96.7038 87.2234 96.9504 87.4834 97.1304 87.8168C97.3104 88.1501 97.4004 88.5401 97.4004 88.9868C97.4004 89.4334 97.3038 89.8201 97.1104 90.1468C96.9171 90.4734 96.6504 90.7268 96.3104 90.9068C95.9771 91.0801 95.5971 91.1668 95.1704 91.1668ZM94.9904 90.4268C95.2571 90.4268 95.5004 90.3668 95.7204 90.2468C95.9471 90.1201 96.1271 89.9501 96.2604 89.7368C96.3938 89.5168 96.4604 89.2701 96.4604 88.9968C96.4604 88.7168 96.3971 88.4701 96.2704 88.2568C96.1438 88.0368 95.9738 87.8634 95.7604 87.7368C95.5538 87.6101 95.3204 87.5468 95.0604 87.5468C94.8204 87.5468 94.6038 87.5934 94.4104 87.6868C94.2171 87.7801 94.0571 87.9101 93.9304 88.0768C93.8038 88.2368 93.7138 88.4234 93.6604 88.6368V89.3268C93.6938 89.5401 93.7738 89.7301 93.9004 89.8968C94.0271 90.0634 94.1838 90.1934 94.3704 90.2868C94.5638 90.3801 94.7704 90.4268 94.9904 90.4268ZM101.098 91.1668C100.785 91.1668 100.482 91.0934 100.188 90.9468C99.9015 90.8001 99.6782 90.6034 99.5182 90.3568L99.5782 90.0668V93.0568H98.6582V86.8668H99.4582L99.5882 87.9268L99.4882 87.6368C99.6882 87.3834 99.9415 87.1734 100.248 87.0068C100.555 86.8401 100.898 86.7568 101.278 86.7568C101.665 86.7568 102.012 86.8501 102.318 87.0368C102.632 87.2234 102.878 87.4834 103.058 87.8168C103.238 88.1501 103.328 88.5401 103.328 88.9868C103.328 89.4334 103.232 89.8201 103.038 90.1468C102.845 90.4734 102.578 90.7268 102.238 90.9068C101.905 91.0801 101.525 91.1668 101.098 91.1668ZM100.918 90.4268C101.185 90.4268 101.428 90.3668 101.648 90.2468C101.875 90.1201 102.055 89.9501 102.188 89.7368C102.322 89.5168 102.388 89.2701 102.388 88.9968C102.388 88.7168 102.325 88.4701 102.198 88.2568C102.072 88.0368 101.902 87.8634 101.688 87.7368C101.482 87.6101 101.248 87.5468 100.988 87.5468C100.748 87.5468 100.532 87.5934 100.338 87.6868C100.145 87.7801 99.9848 87.9101 99.8582 88.0768C99.7315 88.2368 99.6415 88.4234 99.5882 88.6368V89.3268C99.6215 89.5401 99.7015 89.7301 99.8282 89.8968C99.9548 90.0634 100.112 90.1934 100.298 90.2868C100.492 90.3801 100.698 90.4268 100.918 90.4268ZM104.226 88.9568C104.226 88.5434 104.323 88.1701 104.516 87.8368C104.716 87.5034 104.989 87.2401 105.336 87.0468C105.683 86.8534 106.076 86.7568 106.516 86.7568C106.969 86.7568 107.366 86.8534 107.706 87.0468C108.046 87.2401 108.309 87.5034 108.496 87.8368C108.683 88.1701 108.776 88.5434 108.776 88.9568C108.776 89.3701 108.683 89.7468 108.496 90.0868C108.309 90.4201 108.043 90.6834 107.696 90.8768C107.356 91.0701 106.959 91.1668 106.506 91.1668C106.066 91.1668 105.673 91.0768 105.326 90.8968C104.986 90.7101 104.716 90.4534 104.516 90.1268C104.323 89.7934 104.226 89.4034 104.226 88.9568ZM105.156 88.9668C105.156 89.2334 105.216 89.4768 105.336 89.6968C105.456 89.9101 105.616 90.0801 105.816 90.2068C106.023 90.3334 106.249 90.3968 106.496 90.3968C106.756 90.3968 106.986 90.3334 107.186 90.2068C107.393 90.0801 107.553 89.9101 107.666 89.6968C107.779 89.4768 107.836 89.2334 107.836 88.9668C107.836 88.7001 107.779 88.4601 107.666 88.2468C107.553 88.0268 107.393 87.8534 107.186 87.7268C106.986 87.5934 106.756 87.5268 106.496 87.5268C106.243 87.5268 106.013 87.5934 105.806 87.7268C105.606 87.8601 105.446 88.0368 105.326 88.2568C105.213 88.4701 105.156 88.7068 105.156 88.9668ZM109.565 90.5368C109.565 90.3901 109.618 90.2668 109.725 90.1668C109.838 90.0601 109.962 90.0068 110.095 90.0068C110.215 90.0068 110.328 90.0601 110.435 90.1668C110.548 90.2668 110.605 90.3901 110.605 90.5368C110.605 90.6968 110.548 90.8268 110.435 90.9268C110.328 91.0201 110.215 91.0668 110.095 91.0668C109.962 91.0668 109.838 91.0201 109.725 90.9268C109.618 90.8268 109.565 90.6968 109.565 90.5368ZM113.395 91.1668C113.015 91.1668 112.668 91.0768 112.355 90.8968C112.048 90.7101 111.805 90.4501 111.625 90.1168C111.445 89.7768 111.355 89.3868 111.355 88.9468C111.355 88.4868 111.448 88.0934 111.635 87.7668C111.828 87.4401 112.088 87.1901 112.415 87.0168C112.741 86.8434 113.108 86.7568 113.515 86.7568C113.841 86.7568 114.151 86.8268 114.445 86.9668C114.745 87.1068 114.978 87.3001 115.145 87.5468L115.105 87.8768V83.3268H116.025V91.0668H115.095V90.0368L115.195 90.2968C115.001 90.5501 114.751 90.7601 114.445 90.9268C114.138 91.0868 113.788 91.1668 113.395 91.1668ZM113.685 90.3768C113.931 90.3768 114.151 90.3334 114.345 90.2468C114.538 90.1534 114.698 90.0268 114.825 89.8668C114.951 89.7068 115.041 89.5168 115.095 89.2968V88.5168C115.041 88.3168 114.945 88.1434 114.805 87.9968C114.671 87.8434 114.508 87.7234 114.315 87.6368C114.128 87.5434 113.918 87.4968 113.685 87.4968C113.431 87.4968 113.198 87.5601 112.985 87.6868C112.778 87.8068 112.611 87.9734 112.485 88.1868C112.358 88.4001 112.295 88.6468 112.295 88.9268C112.295 89.2001 112.358 89.4468 112.485 89.6668C112.611 89.8801 112.781 90.0534 112.995 90.1868C113.208 90.3134 113.438 90.3768 113.685 90.3768Z" fill="black"/>
<rect x="73.3715" y="14.1196" width="67.2571" height="16.767" rx="8.3835" fill="black"/>
<rect width="11.9312" height="6.12527" rx="2" transform="matrix(0.779728 -0.626118 0.598894 0.800829 110.379 61.4704)" fill="#D9D9D9"/>
<rect width="7.80669" height="5.47754" rx="2" transform="matrix(0.779728 -0.626118 0.598894 0.800829 110.619 59.8835)" fill="#F3EDED"/>
<circle cx="120.019" cy="55.5" r="1" fill="white" stroke="black"/>
<circle cx="121.5" cy="56.5" r="1" fill="white" stroke="black"/>
<circle cx="122.5" cy="57.5" r="1" fill="white" stroke="black"/>
<path d="M39.2902 151V144H42.0202C42.6336 144 43.1569 144.097 43.5902 144.29C44.0236 144.483 44.3569 144.763 44.5902 145.13C44.8236 145.497 44.9402 145.933 44.9402 146.44C44.9402 146.947 44.8236 147.383 44.5902 147.75C44.3569 148.11 44.0236 148.39 43.5902 148.59C43.1569 148.783 42.6336 148.88 42.0202 148.88H39.8402L40.2902 148.41V151H39.2902ZM40.2902 148.51L39.8402 148.01H41.9902C42.6302 148.01 43.1136 147.873 43.4402 147.6C43.7736 147.327 43.9402 146.94 43.9402 146.44C43.9402 145.94 43.7736 145.553 43.4402 145.28C43.1136 145.007 42.6302 144.87 41.9902 144.87H39.8402L40.2902 144.37V148.51ZM48.6098 151.06C48.0432 151.06 47.5432 150.943 47.1098 150.71C46.6832 150.477 46.3498 150.157 46.1098 149.75C45.8765 149.343 45.7598 148.877 45.7598 148.35C45.7598 147.823 45.8732 147.357 46.0998 146.95C46.3332 146.543 46.6498 146.227 47.0498 146C47.4565 145.767 47.9132 145.65 48.4198 145.65C48.9332 145.65 49.3865 145.763 49.7798 145.99C50.1732 146.217 50.4798 146.537 50.6998 146.95C50.9265 147.357 51.0398 147.833 51.0398 148.38C51.0398 148.42 51.0365 148.467 51.0298 148.52C51.0298 148.573 51.0265 148.623 51.0198 148.67H46.5098V147.98H50.5198L50.1298 148.22C50.1365 147.88 50.0665 147.577 49.9198 147.31C49.7732 147.043 49.5698 146.837 49.3098 146.69C49.0565 146.537 48.7598 146.46 48.4198 146.46C48.0865 146.46 47.7898 146.537 47.5298 146.69C47.2698 146.837 47.0665 147.047 46.9198 147.32C46.7732 147.587 46.6998 147.893 46.6998 148.24V148.4C46.6998 148.753 46.7798 149.07 46.9398 149.35C47.1065 149.623 47.3365 149.837 47.6298 149.99C47.9232 150.143 48.2598 150.22 48.6398 150.22C48.9532 150.22 49.2365 150.167 49.4898 150.06C49.7498 149.953 49.9765 149.793 50.1698 149.58L50.6998 150.2C50.4598 150.48 50.1598 150.693 49.7998 150.84C49.4465 150.987 49.0498 151.06 48.6098 151.06ZM55.1829 151.06C54.7429 151.06 54.3396 150.96 53.9729 150.76C53.6129 150.553 53.3229 150.25 53.1029 149.85C52.8896 149.45 52.7829 148.95 52.7829 148.35C52.7829 147.75 52.8862 147.25 53.0929 146.85C53.3062 146.45 53.5929 146.15 53.9529 145.95C54.3196 145.75 54.7296 145.65 55.1829 145.65C55.7029 145.65 56.1629 145.763 56.5629 145.99C56.9629 146.217 57.2796 146.533 57.5129 146.94C57.7462 147.34 57.8629 147.81 57.8629 148.35C57.8629 148.89 57.7462 149.363 57.5129 149.77C57.2796 150.177 56.9629 150.493 56.5629 150.72C56.1629 150.947 55.7029 151.06 55.1829 151.06ZM52.3729 152.94V145.7H53.2929V147.13L53.2329 148.36L53.3329 149.59V152.94H52.3729ZM55.1029 150.22C55.4429 150.22 55.7462 150.143 56.0129 149.99C56.2862 149.837 56.4996 149.62 56.6529 149.34C56.8129 149.053 56.8929 148.723 56.8929 148.35C56.8929 147.97 56.8129 147.643 56.6529 147.37C56.4996 147.09 56.2862 146.873 56.0129 146.72C55.7462 146.567 55.4429 146.49 55.1029 146.49C54.7696 146.49 54.4662 146.567 54.1929 146.72C53.9262 146.873 53.7129 147.09 53.5529 147.37C53.3996 147.643 53.3229 147.97 53.3229 148.35C53.3229 148.723 53.3996 149.053 53.5529 149.34C53.7129 149.62 53.9262 149.837 54.1929 149.99C54.4662 150.143 54.7696 150.22 55.1029 150.22ZM61.9993 151.06C61.5593 151.06 61.156 150.96 60.7893 150.76C60.4293 150.553 60.1393 150.25 59.9193 149.85C59.706 149.45 59.5993 148.95 59.5993 148.35C59.5993 147.75 59.7026 147.25 59.9093 146.85C60.1226 146.45 60.4093 146.15 60.7693 145.95C61.136 145.75 61.546 145.65 61.9993 145.65C62.5193 145.65 62.9793 145.763 63.3793 145.99C63.7793 146.217 64.096 146.533 64.3293 146.94C64.5626 147.34 64.6793 147.81 64.6793 148.35C64.6793 148.89 64.5626 149.363 64.3293 149.77C64.096 150.177 63.7793 150.493 63.3793 150.72C62.9793 150.947 62.5193 151.06 61.9993 151.06ZM59.1893 152.94V145.7H60.1093V147.13L60.0493 148.36L60.1493 149.59V152.94H59.1893ZM61.9193 150.22C62.2593 150.22 62.5626 150.143 62.8293 149.99C63.1026 149.837 63.316 149.62 63.4693 149.34C63.6293 149.053 63.7093 148.723 63.7093 148.35C63.7093 147.97 63.6293 147.643 63.4693 147.37C63.316 147.09 63.1026 146.873 62.8293 146.72C62.5626 146.567 62.2593 146.49 61.9193 146.49C61.586 146.49 61.2826 146.567 61.0093 146.72C60.7426 146.873 60.5293 147.09 60.3693 147.37C60.216 147.643 60.1393 147.97 60.1393 148.35C60.1393 148.723 60.216 149.053 60.3693 149.34C60.5293 149.62 60.7426 149.837 61.0093 149.99C61.2826 150.143 61.586 150.22 61.9193 150.22ZM68.2757 151.06C67.7424 151.06 67.269 150.943 66.8557 150.71C66.4424 150.477 66.1157 150.157 65.8757 149.75C65.6357 149.337 65.5157 148.87 65.5157 148.35C65.5157 147.823 65.6357 147.357 65.8757 146.95C66.1157 146.543 66.4424 146.227 66.8557 146C67.269 145.767 67.7424 145.65 68.2757 145.65C68.8024 145.65 69.2724 145.767 69.6857 146C70.1057 146.227 70.4324 146.543 70.6657 146.95C70.9057 147.35 71.0257 147.817 71.0257 148.35C71.0257 148.877 70.9057 149.343 70.6657 149.75C70.4324 150.157 70.1057 150.477 69.6857 150.71C69.2724 150.943 68.8024 151.06 68.2757 151.06ZM68.2757 150.22C68.6157 150.22 68.919 150.143 69.1857 149.99C69.459 149.837 69.6724 149.62 69.8257 149.34C69.979 149.053 70.0557 148.723 70.0557 148.35C70.0557 147.97 69.979 147.643 69.8257 147.37C69.6724 147.09 69.459 146.873 69.1857 146.72C68.919 146.567 68.6157 146.49 68.2757 146.49C67.9357 146.49 67.6324 146.567 67.3657 146.72C67.099 146.873 66.8857 147.09 66.7257 147.37C66.5657 147.643 66.4857 147.97 66.4857 148.35C66.4857 148.723 66.5657 149.053 66.7257 149.34C66.8857 149.62 67.099 149.837 67.3657 149.99C67.6324 150.143 67.9357 150.22 68.2757 150.22ZM72.4662 151.06C72.2795 151.06 72.1195 150.997 71.9862 150.87C71.8528 150.737 71.7862 150.57 71.7862 150.37C71.7862 150.17 71.8528 150.007 71.9862 149.88C72.1195 149.753 72.2795 149.69 72.4662 149.69C72.6462 149.69 72.7995 149.753 72.9262 149.88C73.0595 150.007 73.1262 150.17 73.1262 150.37C73.1262 150.57 73.0595 150.737 72.9262 150.87C72.7995 150.997 72.6462 151.06 72.4662 151.06ZM76.5746 151.06C76.0613 151.06 75.6013 150.947 75.1946 150.72C74.7946 150.493 74.4779 150.177 74.2446 149.77C74.0113 149.363 73.8946 148.89 73.8946 148.35C73.8946 147.81 74.0113 147.34 74.2446 146.94C74.4779 146.533 74.7946 146.217 75.1946 145.99C75.6013 145.763 76.0613 145.65 76.5746 145.65C77.0213 145.65 77.4246 145.75 77.7846 145.95C78.1446 146.15 78.4313 146.45 78.6446 146.85C78.8646 147.25 78.9746 147.75 78.9746 148.35C78.9746 148.95 78.8679 149.45 78.6546 149.85C78.4479 150.25 78.1646 150.553 77.8046 150.76C77.4446 150.96 77.0346 151.06 76.5746 151.06ZM76.6546 150.22C76.9879 150.22 77.2879 150.143 77.5546 149.99C77.8279 149.837 78.0413 149.62 78.1946 149.34C78.3546 149.053 78.4346 148.723 78.4346 148.35C78.4346 147.97 78.3546 147.643 78.1946 147.37C78.0413 147.09 77.8279 146.873 77.5546 146.72C77.2879 146.567 76.9879 146.49 76.6546 146.49C76.3146 146.49 76.0113 146.567 75.7446 146.72C75.4779 146.873 75.2646 147.09 75.1046 147.37C74.9446 147.643 74.8646 147.97 74.8646 148.35C74.8646 148.723 74.9446 149.053 75.1046 149.34C75.2646 149.62 75.4779 149.837 75.7446 149.99C76.0113 150.143 76.3146 150.22 76.6546 150.22ZM78.4646 151V149.57L78.5246 148.34L78.4246 147.11V143.58H79.3846V151H78.4646ZM83.471 151.06C82.9377 151.06 82.4643 150.943 82.051 150.71C81.6377 150.477 81.311 150.157 81.071 149.75C80.831 149.337 80.711 148.87 80.711 148.35C80.711 147.823 80.831 147.357 81.071 146.95C81.311 146.543 81.6377 146.227 82.051 146C82.4643 145.767 82.9377 145.65 83.471 145.65C83.9977 145.65 84.4677 145.767 84.881 146C85.301 146.227 85.6277 146.543 85.861 146.95C86.101 147.35 86.221 147.817 86.221 148.35C86.221 148.877 86.101 149.343 85.861 149.75C85.6277 150.157 85.301 150.477 84.881 150.71C84.4677 150.943 83.9977 151.06 83.471 151.06ZM83.471 150.22C83.811 150.22 84.1143 150.143 84.381 149.99C84.6543 149.837 84.8677 149.62 85.021 149.34C85.1743 149.053 85.251 148.723 85.251 148.35C85.251 147.97 85.1743 147.643 85.021 147.37C84.8677 147.09 84.6543 146.873 84.381 146.72C84.1143 146.567 83.811 146.49 83.471 146.49C83.131 146.49 82.8277 146.567 82.561 146.72C82.2943 146.873 82.081 147.09 81.921 147.37C81.761 147.643 81.681 147.97 81.681 148.35C81.681 148.723 81.761 149.053 81.921 149.34C82.081 149.62 82.2943 149.837 82.561 149.99C82.8277 150.143 83.131 150.22 83.471 150.22ZM93.8742 150.55V146.54H91.5742L91.5242 147.56C91.5109 147.893 91.4876 148.217 91.4542 148.53C91.4276 148.837 91.3809 149.12 91.3142 149.38C91.2542 149.64 91.1642 149.853 91.0442 150.02C90.9242 150.187 90.7642 150.29 90.5642 150.33L89.6142 150.16C89.8209 150.167 89.9876 150.1 90.1142 149.96C90.2409 149.813 90.3376 149.613 90.4042 149.36C90.4776 149.107 90.5309 148.82 90.5642 148.5C90.5976 148.173 90.6242 147.837 90.6442 147.49L90.7242 145.7H94.8342V150.55H93.8742ZM89.4042 152.23V150.16H95.6442V152.23H94.7442V151H90.3142V152.23H89.4042ZM100.145 151V149.88L100.095 149.67V147.76C100.095 147.353 99.9748 147.04 99.7348 146.82C99.5015 146.593 99.1482 146.48 98.6748 146.48C98.3615 146.48 98.0548 146.533 97.7548 146.64C97.4548 146.74 97.2015 146.877 96.9948 147.05L96.5948 146.33C96.8682 146.11 97.1948 145.943 97.5748 145.83C97.9615 145.71 98.3648 145.65 98.7848 145.65C99.5115 145.65 100.072 145.827 100.465 146.18C100.858 146.533 101.055 147.073 101.055 147.8V151H100.145ZM98.4048 151.06C98.0115 151.06 97.6648 150.993 97.3648 150.86C97.0715 150.727 96.8448 150.543 96.6848 150.31C96.5248 150.07 96.4448 149.8 96.4448 149.5C96.4448 149.213 96.5115 148.953 96.6448 148.72C96.7848 148.487 97.0082 148.3 97.3148 148.16C97.6282 148.02 98.0482 147.95 98.5748 147.95H100.255V148.64H98.6148C98.1348 148.64 97.8115 148.72 97.6448 148.88C97.4782 149.04 97.3948 149.233 97.3948 149.46C97.3948 149.72 97.4982 149.93 97.7048 150.09C97.9115 150.243 98.1982 150.32 98.5648 150.32C98.9248 150.32 99.2382 150.24 99.5048 150.08C99.7782 149.92 99.9748 149.687 100.095 149.38L100.285 150.04C100.158 150.353 99.9348 150.603 99.6148 150.79C99.2948 150.97 98.8915 151.06 98.4048 151.06ZM105.144 151.06C104.577 151.06 104.077 150.943 103.644 150.71C103.217 150.477 102.884 150.157 102.644 149.75C102.41 149.343 102.294 148.877 102.294 148.35C102.294 147.823 102.407 147.357 102.634 146.95C102.867 146.543 103.184 146.227 103.584 146C103.99 145.767 104.447 145.65 104.954 145.65C105.467 145.65 105.92 145.763 106.314 145.99C106.707 146.217 107.014 146.537 107.234 146.95C107.46 147.357 107.574 147.833 107.574 148.38C107.574 148.42 107.57 148.467 107.564 148.52C107.564 148.573 107.56 148.623 107.554 148.67H103.044V147.98H107.054L106.664 148.22C106.67 147.88 106.6 147.577 106.454 147.31C106.307 147.043 106.104 146.837 105.844 146.69C105.59 146.537 105.294 146.46 104.954 146.46C104.62 146.46 104.324 146.537 104.064 146.69C103.804 146.837 103.6 147.047 103.454 147.32C103.307 147.587 103.234 147.893 103.234 148.24V148.4C103.234 148.753 103.314 149.07 103.474 149.35C103.64 149.623 103.87 149.837 104.164 149.99C104.457 150.143 104.794 150.22 105.174 150.22C105.487 150.22 105.77 150.167 106.024 150.06C106.284 149.953 106.51 149.793 106.704 149.58L107.234 150.2C106.994 150.48 106.694 150.693 106.334 150.84C105.98 150.987 105.584 151.06 105.144 151.06ZM109.888 151V146.29L110.128 146.54H107.948V145.7H112.788V146.54H110.618L110.848 146.29V151H109.888ZM116.725 153C116.472 153 116.225 152.957 115.985 152.87C115.745 152.79 115.539 152.67 115.365 152.51L115.775 151.79C115.909 151.917 116.055 152.013 116.215 152.08C116.375 152.147 116.545 152.18 116.725 152.18C116.959 152.18 117.152 152.12 117.305 152C117.459 151.88 117.602 151.667 117.735 151.36L118.065 150.63L118.165 150.51L120.245 145.7H121.185L118.615 151.53C118.462 151.903 118.289 152.197 118.095 152.41C117.909 152.623 117.702 152.773 117.475 152.86C117.249 152.953 116.999 153 116.725 153ZM117.985 151.17L115.565 145.7H116.565L118.625 150.42L117.985 151.17ZM122.168 151V145.7H124.628C125.248 145.7 125.735 145.82 126.088 146.06C126.448 146.293 126.628 146.627 126.628 147.06C126.628 147.493 126.458 147.83 126.118 148.07C125.785 148.303 125.342 148.42 124.788 148.42L124.938 148.16C125.572 148.16 126.042 148.277 126.348 148.51C126.655 148.743 126.808 149.087 126.808 149.54C126.808 150 126.635 150.36 126.288 150.62C125.948 150.873 125.425 151 124.718 151H122.168ZM123.108 150.26H124.648C125.048 150.26 125.348 150.2 125.548 150.08C125.748 149.953 125.848 149.753 125.848 149.48C125.848 149.2 125.755 148.997 125.568 148.87C125.388 148.737 125.102 148.67 124.708 148.67H123.108V150.26ZM123.108 147.98H124.548C124.915 147.98 125.192 147.913 125.378 147.78C125.572 147.64 125.668 147.447 125.668 147.2C125.668 146.947 125.572 146.757 125.378 146.63C125.192 146.503 124.915 146.44 124.548 146.44H123.108V147.98ZM130.671 151.06C130.104 151.06 129.604 150.943 129.171 150.71C128.744 150.477 128.411 150.157 128.171 149.75C127.938 149.343 127.821 148.877 127.821 148.35C127.821 147.823 127.934 147.357 128.161 146.95C128.394 146.543 128.711 146.227 129.111 146C129.518 145.767 129.974 145.65 130.481 145.65C130.994 145.65 131.448 145.763 131.841 145.99C132.234 146.217 132.541 146.537 132.761 146.95C132.988 147.357 133.101 147.833 133.101 148.38C133.101 148.42 133.098 148.467 133.091 148.52C133.091 148.573 133.088 148.623 133.081 148.67H128.571V147.98H132.581L132.191 148.22C132.198 147.88 132.128 147.577 131.981 147.31C131.834 147.043 131.631 146.837 131.371 146.69C131.118 146.537 130.821 146.46 130.481 146.46C130.148 146.46 129.851 146.537 129.591 146.69C129.331 146.837 129.128 147.047 128.981 147.32C128.834 147.587 128.761 147.893 128.761 148.24V148.4C128.761 148.753 128.841 149.07 129.001 149.35C129.168 149.623 129.398 149.837 129.691 149.99C129.984 150.143 130.321 150.22 130.701 150.22C131.014 150.22 131.298 150.167 131.551 150.06C131.811 149.953 132.038 149.793 132.231 149.58L132.761 150.2C132.521 150.48 132.221 150.693 131.861 150.84C131.508 150.987 131.111 151.06 130.671 151.06ZM137.4 151.06C136.96 151.06 136.557 150.96 136.19 150.76C135.83 150.553 135.54 150.25 135.32 149.85C135.107 149.45 135 148.95 135 148.35C135 147.75 135.103 147.25 135.31 146.85C135.523 146.45 135.81 146.15 136.17 145.95C136.537 145.75 136.947 145.65 137.4 145.65C137.92 145.65 138.38 145.763 138.78 145.99C139.18 146.217 139.497 146.533 139.73 146.94C139.963 147.34 140.08 147.81 140.08 148.35C140.08 148.89 139.963 149.363 139.73 149.77C139.497 150.177 139.18 150.493 138.78 150.72C138.38 150.947 137.92 151.06 137.4 151.06ZM134.59 152.94V145.7H135.51V147.13L135.45 148.36L135.55 149.59V152.94H134.59ZM137.32 150.22C137.66 150.22 137.963 150.143 138.23 149.99C138.503 149.837 138.717 149.62 138.87 149.34C139.03 149.053 139.11 148.723 139.11 148.35C139.11 147.97 139.03 147.643 138.87 147.37C138.717 147.09 138.503 146.873 138.23 146.72C137.963 146.567 137.66 146.49 137.32 146.49C136.987 146.49 136.683 146.567 136.41 146.72C136.143 146.873 135.93 147.09 135.77 147.37C135.617 147.643 135.54 147.97 135.54 148.35C135.54 148.723 135.617 149.053 135.77 149.34C135.93 149.62 136.143 149.837 136.41 149.99C136.683 150.143 136.987 150.22 137.32 150.22ZM143.835 151.06C143.268 151.06 142.768 150.943 142.335 150.71C141.908 150.477 141.575 150.157 141.335 149.75C141.102 149.343 140.985 148.877 140.985 148.35C140.985 147.823 141.098 147.357 141.325 146.95C141.558 146.543 141.875 146.227 142.275 146C142.682 145.767 143.138 145.65 143.645 145.65C144.158 145.65 144.612 145.763 145.005 145.99C145.398 146.217 145.705 146.537 145.925 146.95C146.152 147.357 146.265 147.833 146.265 148.38C146.265 148.42 146.262 148.467 146.255 148.52C146.255 148.573 146.252 148.623 146.245 148.67H141.735V147.98H145.745L145.355 148.22C145.362 147.88 145.292 147.577 145.145 147.31C144.998 147.043 144.795 146.837 144.535 146.69C144.282 146.537 143.985 146.46 143.645 146.46C143.312 146.46 143.015 146.537 142.755 146.69C142.495 146.837 142.292 147.047 142.145 147.32C141.998 147.587 141.925 147.893 141.925 148.24V148.4C141.925 148.753 142.005 149.07 142.165 149.35C142.332 149.623 142.562 149.837 142.855 149.99C143.148 150.143 143.485 150.22 143.865 150.22C144.178 150.22 144.462 150.167 144.715 150.06C144.975 149.953 145.202 149.793 145.395 149.58L145.925 150.2C145.685 150.48 145.385 150.693 145.025 150.84C144.672 150.987 144.275 151.06 143.835 151.06ZM147.754 151V145.7H148.714V147.95H151.734V145.7H152.694V151H151.734V148.78H148.714V151H147.754ZM154.561 151V145.7H155.521V147.95H158.541V145.7H159.501V151H158.541V148.78H155.521V151H154.561ZM163.638 151.06C163.104 151.06 162.631 150.943 162.218 150.71C161.804 150.477 161.478 150.157 161.238 149.75C160.998 149.337 160.878 148.87 160.878 148.35C160.878 147.823 160.998 147.357 161.238 146.95C161.478 146.543 161.804 146.227 162.218 146C162.631 145.767 163.104 145.65 163.638 145.65C164.164 145.65 164.634 145.767 165.048 146C165.468 146.227 165.794 146.543 166.028 146.95C166.268 147.35 166.388 147.817 166.388 148.35C166.388 148.877 166.268 149.343 166.028 149.75C165.794 150.157 165.468 150.477 165.048 150.71C164.634 150.943 164.164 151.06 163.638 151.06ZM163.638 150.22C163.978 150.22 164.281 150.143 164.548 149.99C164.821 149.837 165.034 149.62 165.188 149.34C165.341 149.053 165.418 148.723 165.418 148.35C165.418 147.97 165.341 147.643 165.188 147.37C165.034 147.09 164.821 146.873 164.548 146.72C164.281 146.567 163.978 146.49 163.638 146.49C163.298 146.49 162.994 146.567 162.728 146.72C162.461 146.873 162.248 147.09 162.088 147.37C161.928 147.643 161.848 147.97 161.848 148.35C161.848 148.723 161.928 149.053 162.088 149.34C162.248 149.62 162.461 149.837 162.728 149.99C162.994 150.143 163.298 150.22 163.638 150.22ZM170.084 151.06C169.544 151.06 169.06 150.943 168.634 150.71C168.214 150.477 167.884 150.157 167.644 149.75C167.404 149.343 167.284 148.877 167.284 148.35C167.284 147.823 167.404 147.357 167.644 146.95C167.884 146.543 168.214 146.227 168.634 146C169.06 145.767 169.544 145.65 170.084 145.65C170.564 145.65 170.99 145.747 171.364 145.94C171.744 146.127 172.037 146.407 172.244 146.78L171.514 147.25C171.34 146.99 171.127 146.8 170.874 146.68C170.627 146.553 170.36 146.49 170.074 146.49C169.727 146.49 169.417 146.567 169.144 146.72C168.87 146.873 168.654 147.09 168.494 147.37C168.334 147.643 168.254 147.97 168.254 148.35C168.254 148.73 168.334 149.06 168.494 149.34C168.654 149.62 168.87 149.837 169.144 149.99C169.417 150.143 169.727 150.22 170.074 150.22C170.36 150.22 170.627 150.16 170.874 150.04C171.127 149.913 171.34 149.72 171.514 149.46L172.244 149.92C172.037 150.287 171.744 150.57 171.364 150.77C170.99 150.963 170.564 151.06 170.084 151.06ZM174.468 151V146.29L174.708 146.54H172.528V145.7H177.368V146.54H175.198L175.428 146.29V151H174.468ZM180.8 147.5C181.473 147.507 181.987 147.66 182.34 147.96C182.693 148.26 182.87 148.683 182.87 149.23C182.87 149.803 182.677 150.247 182.29 150.56C181.903 150.867 181.357 151.017 180.65 151.01L178.35 151V145.7H179.31V147.49L180.8 147.5ZM180.57 150.28C181.003 150.287 181.33 150.2 181.55 150.02C181.777 149.84 181.89 149.573 181.89 149.22C181.89 148.873 181.78 148.62 181.56 148.46C181.34 148.3 181.01 148.217 180.57 148.21L179.31 148.19V150.27L180.57 150.28ZM186.787 151V145.7H189.247C189.867 145.7 190.354 145.82 190.707 146.06C191.067 146.293 191.247 146.627 191.247 147.06C191.247 147.493 191.077 147.83 190.737 148.07C190.404 148.303 189.961 148.42 189.407 148.42L189.557 148.16C190.191 148.16 190.661 148.277 190.967 148.51C191.274 148.743 191.427 149.087 191.427 149.54C191.427 150 191.254 150.36 190.907 150.62C190.567 150.873 190.044 151 189.337 151H186.787ZM187.727 150.26H189.267C189.667 150.26 189.967 150.2 190.167 150.08C190.367 149.953 190.467 149.753 190.467 149.48C190.467 149.2 190.374 148.997 190.187 148.87C190.007 148.737 189.721 148.67 189.327 148.67H187.727V150.26ZM187.727 147.98H189.167C189.534 147.98 189.811 147.913 189.997 147.78C190.191 147.64 190.287 147.447 190.287 147.2C190.287 146.947 190.191 146.757 189.997 146.63C189.811 146.503 189.534 146.44 189.167 146.44H187.727V147.98ZM44.8784 166V161.29L45.1184 161.54H42.9384V160.7H47.7784V161.54H45.6084L45.8384 161.29V166H44.8784ZM50.7957 166.06C50.2624 166.06 49.789 165.943 49.3757 165.71C48.9624 165.477 48.6357 165.157 48.3957 164.75C48.1557 164.337 48.0357 163.87 48.0357 163.35C48.0357 162.823 48.1557 162.357 48.3957 161.95C48.6357 161.543 48.9624 161.227 49.3757 161C49.789 160.767 50.2624 160.65 50.7957 160.65C51.3224 160.65 51.7924 160.767 52.2057 161C52.6257 161.227 52.9524 161.543 53.1857 161.95C53.4257 162.35 53.5457 162.817 53.5457 163.35C53.5457 163.877 53.4257 164.343 53.1857 164.75C52.9524 165.157 52.6257 165.477 52.2057 165.71C51.7924 165.943 51.3224 166.06 50.7957 166.06ZM50.7957 165.22C51.1357 165.22 51.439 165.143 51.7057 164.99C51.979 164.837 52.1924 164.62 52.3457 164.34C52.499 164.053 52.5757 163.723 52.5757 163.35C52.5757 162.97 52.499 162.643 52.3457 162.37C52.1924 162.09 51.979 161.873 51.7057 161.72C51.439 161.567 51.1357 161.49 50.7957 161.49C50.4557 161.49 50.1524 161.567 49.8857 161.72C49.619 161.873 49.4057 162.09 49.2457 162.37C49.0857 162.643 49.0057 162.97 49.0057 163.35C49.0057 163.723 49.0857 164.053 49.2457 164.34C49.4057 164.62 49.619 164.837 49.8857 164.99C50.1524 165.143 50.4557 165.22 50.7957 165.22ZM54.932 166V160.7H55.922L58.202 164.62H57.802L60.142 160.7H61.042V166H60.172V161.78L60.332 161.87L58.192 165.4H57.772L55.622 161.8L55.812 161.76V166H54.932ZM62.5105 167.48L63.0105 165.46L63.1405 166.04C62.9471 166.04 62.7838 165.98 62.6505 165.86C62.5238 165.74 62.4605 165.577 62.4605 165.37C62.4605 165.17 62.5238 165.007 62.6505 164.88C62.7838 164.753 62.9438 164.69 63.1305 164.69C63.3238 164.69 63.4805 164.757 63.6005 164.89C63.7205 165.017 63.7805 165.177 63.7805 165.37C63.7805 165.437 63.7738 165.503 63.7605 165.57C63.7538 165.63 63.7371 165.703 63.7105 165.79C63.6905 165.87 63.6571 165.97 63.6105 166.09L63.1405 167.48H62.5105ZM71.2016 163.83C70.9216 163.963 70.6316 164.07 70.3316 164.15C70.0383 164.223 69.735 164.26 69.4216 164.26C68.7816 164.26 68.275 164.11 67.9016 163.81C67.535 163.51 67.3516 163.047 67.3516 162.42V160.7H68.3116V162.36C68.3116 162.74 68.4283 163.02 68.6616 163.2C68.9016 163.38 69.2216 163.47 69.6216 163.47C69.875 163.47 70.135 163.437 70.4016 163.37C70.675 163.303 70.9416 163.21 71.2016 163.09V163.83ZM71.1316 166V160.7H72.0916V166H71.1316ZM75.0054 166V161.29L75.2454 161.54H73.0654V160.7H77.9054V161.54H75.7354L75.9654 161.29V166H75.0054ZM80.9227 166.06C80.3893 166.06 79.916 165.943 79.5027 165.71C79.0893 165.477 78.7627 165.157 78.5227 164.75C78.2827 164.337 78.1627 163.87 78.1627 163.35C78.1627 162.823 78.2827 162.357 78.5227 161.95C78.7627 161.543 79.0893 161.227 79.5027 161C79.916 160.767 80.3893 160.65 80.9227 160.65C81.4493 160.65 81.9193 160.767 82.3327 161C82.7527 161.227 83.0793 161.543 83.3127 161.95C83.5527 162.35 83.6727 162.817 83.6727 163.35C83.6727 163.877 83.5527 164.343 83.3127 164.75C83.0793 165.157 82.7527 165.477 82.3327 165.71C81.9193 165.943 81.4493 166.06 80.9227 166.06ZM80.9227 165.22C81.2627 165.22 81.566 165.143 81.8327 164.99C82.106 164.837 82.3193 164.62 82.4727 164.34C82.626 164.053 82.7027 163.723 82.7027 163.35C82.7027 162.97 82.626 162.643 82.4727 162.37C82.3193 162.09 82.106 161.873 81.8327 161.72C81.566 161.567 81.2627 161.49 80.9227 161.49C80.5827 161.49 80.2793 161.567 80.0127 161.72C79.746 161.873 79.5327 162.09 79.3727 162.37C79.2127 162.643 79.1327 162.97 79.1327 163.35C79.1327 163.723 79.2127 164.053 79.3727 164.34C79.5327 164.62 79.746 164.837 80.0127 164.99C80.2793 165.143 80.5827 165.22 80.9227 165.22ZM87.7445 166V160.7H90.2045C90.8245 160.7 91.3111 160.82 91.6645 161.06C92.0245 161.293 92.2045 161.627 92.2045 162.06C92.2045 162.493 92.0345 162.83 91.6945 163.07C91.3611 163.303 90.9178 163.42 90.3645 163.42L90.5145 163.16C91.1478 163.16 91.6178 163.277 91.9245 163.51C92.2311 163.743 92.3845 164.087 92.3845 164.54C92.3845 165 92.2111 165.36 91.8645 165.62C91.5245 165.873 91.0011 166 90.2945 166H87.7445ZM88.6845 165.26H90.2245C90.6245 165.26 90.9245 165.2 91.1245 165.08C91.3245 164.953 91.4245 164.753 91.4245 164.48C91.4245 164.2 91.3311 163.997 91.1445 163.87C90.9645 163.737 90.6778 163.67 90.2845 163.67H88.6845V165.26ZM88.6845 162.98H90.1245C90.4911 162.98 90.7678 162.913 90.9545 162.78C91.1478 162.64 91.2445 162.447 91.2445 162.2C91.2445 161.947 91.1478 161.757 90.9545 161.63C90.7678 161.503 90.4911 161.44 90.1245 161.44H88.6845V162.98ZM96.197 166.06C95.657 166.06 95.1737 165.943 94.747 165.71C94.327 165.477 93.997 165.157 93.757 164.75C93.517 164.343 93.397 163.877 93.397 163.35C93.397 162.823 93.517 162.357 93.757 161.95C93.997 161.543 94.327 161.227 94.747 161C95.1737 160.767 95.657 160.65 96.197 160.65C96.677 160.65 97.1037 160.747 97.477 160.94C97.857 161.127 98.1504 161.407 98.357 161.78L97.627 162.25C97.4537 161.99 97.2404 161.8 96.987 161.68C96.7404 161.553 96.4737 161.49 96.187 161.49C95.8404 161.49 95.5304 161.567 95.257 161.72C94.9837 161.873 94.767 162.09 94.607 162.37C94.447 162.643 94.367 162.97 94.367 163.35C94.367 163.73 94.447 164.06 94.607 164.34C94.767 164.62 94.9837 164.837 95.257 164.99C95.5304 165.143 95.8404 165.22 96.187 165.22C96.4737 165.22 96.7404 165.16 96.987 165.04C97.2404 164.913 97.4537 164.72 97.627 164.46L98.357 164.92C98.1504 165.287 97.857 165.57 97.477 165.77C97.1037 165.963 96.677 166.06 96.197 166.06ZM101.882 166.06C101.315 166.06 100.815 165.943 100.382 165.71C99.9551 165.477 99.6218 165.157 99.3818 164.75C99.1485 164.343 99.0318 163.877 99.0318 163.35C99.0318 162.823 99.1451 162.357 99.3718 161.95C99.6051 161.543 99.9218 161.227 100.322 161C100.728 160.767 101.185 160.65 101.692 160.65C102.205 160.65 102.658 160.763 103.052 160.99C103.445 161.217 103.752 161.537 103.972 161.95C104.198 162.357 104.312 162.833 104.312 163.38C104.312 163.42 104.308 163.467 104.302 163.52C104.302 163.573 104.298 163.623 104.292 163.67H99.7818V162.98H103.792L103.402 163.22C103.408 162.88 103.338 162.577 103.192 162.31C103.045 162.043 102.842 161.837 102.582 161.69C102.328 161.537 102.032 161.46 101.692 161.46C101.358 161.46 101.062 161.537 100.802 161.69C100.542 161.837 100.338 162.047 100.192 162.32C100.045 162.587 99.9718 162.893 99.9718 163.24V163.4C99.9718 163.753 100.052 164.07 100.212 164.35C100.378 164.623 100.608 164.837 100.902 164.99C101.195 165.143 101.532 165.22 101.912 165.22C102.225 165.22 102.508 165.167 102.762 165.06C103.022 164.953 103.248 164.793 103.442 164.58L103.972 165.2C103.732 165.48 103.432 165.693 103.072 165.84C102.718 165.987 102.322 166.06 101.882 166.06ZM110.757 166.06C110.223 166.06 109.75 165.943 109.337 165.71C108.923 165.477 108.597 165.157 108.357 164.75C108.117 164.337 107.997 163.87 107.997 163.35C107.997 162.823 108.117 162.357 108.357 161.95C108.597 161.543 108.923 161.227 109.337 161C109.75 160.767 110.223 160.65 110.757 160.65C111.283 160.65 111.753 160.767 112.167 161C112.587 161.227 112.913 161.543 113.147 161.95C113.387 162.35 113.507 162.817 113.507 163.35C113.507 163.877 113.387 164.343 113.147 164.75C112.913 165.157 112.587 165.477 112.167 165.71C111.753 165.943 111.283 166.06 110.757 166.06ZM110.757 165.22C111.097 165.22 111.4 165.143 111.667 164.99C111.94 164.837 112.153 164.62 112.307 164.34C112.46 164.053 112.537 163.723 112.537 163.35C112.537 162.97 112.46 162.643 112.307 162.37C112.153 162.09 111.94 161.873 111.667 161.72C111.4 161.567 111.097 161.49 110.757 161.49C110.417 161.49 110.113 161.567 109.847 161.72C109.58 161.873 109.367 162.09 109.207 162.37C109.047 162.643 108.967 162.97 108.967 163.35C108.967 163.723 109.047 164.053 109.207 164.34C109.367 164.62 109.58 164.837 109.847 164.99C110.113 165.143 110.417 165.22 110.757 165.22ZM117.703 166.06C117.263 166.06 116.86 165.96 116.493 165.76C116.133 165.553 115.843 165.25 115.623 164.85C115.41 164.45 115.303 163.95 115.303 163.35C115.303 162.75 115.406 162.25 115.613 161.85C115.826 161.45 116.113 161.15 116.473 160.95C116.84 160.75 117.25 160.65 117.703 160.65C118.223 160.65 118.683 160.763 119.083 160.99C119.483 161.217 119.8 161.533 120.033 161.94C120.266 162.34 120.383 162.81 120.383 163.35C120.383 163.89 120.266 164.363 120.033 164.77C119.8 165.177 119.483 165.493 119.083 165.72C118.683 165.947 118.223 166.06 117.703 166.06ZM114.893 167.94V160.7H115.813V162.13L115.753 163.36L115.853 164.59V167.94H114.893ZM117.623 165.22C117.963 165.22 118.266 165.143 118.533 164.99C118.806 164.837 119.02 164.62 119.173 164.34C119.333 164.053 119.413 163.723 119.413 163.35C119.413 162.97 119.333 162.643 119.173 162.37C119.02 162.09 118.806 161.873 118.533 161.72C118.266 161.567 117.963 161.49 117.623 161.49C117.29 161.49 116.986 161.567 116.713 161.72C116.446 161.873 116.233 162.09 116.073 162.37C115.92 162.643 115.843 162.97 115.843 163.35C115.843 163.723 115.92 164.053 116.073 164.34C116.233 164.62 116.446 164.837 116.713 164.99C116.986 165.143 117.29 165.22 117.623 165.22ZM121.778 166V160.7H125.678V161.54H122.508L122.738 161.32V166H121.778ZM129.91 166V164.88L129.86 164.67V162.76C129.86 162.353 129.74 162.04 129.5 161.82C129.267 161.593 128.914 161.48 128.44 161.48C128.127 161.48 127.82 161.533 127.52 161.64C127.22 161.74 126.967 161.877 126.76 162.05L126.36 161.33C126.634 161.11 126.96 160.943 127.34 160.83C127.727 160.71 128.13 160.65 128.55 160.65C129.277 160.65 129.837 160.827 130.23 161.18C130.624 161.533 130.82 162.073 130.82 162.8V166H129.91ZM128.17 166.06C127.777 166.06 127.43 165.993 127.13 165.86C126.837 165.727 126.61 165.543 126.45 165.31C126.29 165.07 126.21 164.8 126.21 164.5C126.21 164.213 126.277 163.953 126.41 163.72C126.55 163.487 126.774 163.3 127.08 163.16C127.394 163.02 127.814 162.95 128.34 162.95H130.02V163.64H128.38C127.9 163.64 127.577 163.72 127.41 163.88C127.244 164.04 127.16 164.233 127.16 164.46C127.16 164.72 127.264 164.93 127.47 165.09C127.677 165.243 127.964 165.32 128.33 165.32C128.69 165.32 129.004 165.24 129.27 165.08C129.544 164.92 129.74 164.687 129.86 164.38L130.05 165.04C129.924 165.353 129.7 165.603 129.38 165.79C129.06 165.97 128.657 166.06 128.17 166.06ZM132.549 166V160.7H133.509V162.95H136.529V160.7H137.489V166H136.529V163.78H133.509V166H132.549ZM139.356 166V160.7H140.316V164.56L143.566 160.7H144.436V166H143.476V162.14L140.236 166H139.356ZM147.761 166.07C148.228 166.07 148.641 166.003 149.001 165.87C149.368 165.73 149.658 165.54 149.871 165.3C150.085 165.053 150.191 164.77 150.191 164.45C150.191 164.05 150.021 163.733 149.681 163.5C149.341 163.267 148.875 163.15 148.281 163.15L148.241 163.38C148.588 163.38 148.895 163.323 149.161 163.21C149.428 163.097 149.641 162.943 149.801 162.75C149.961 162.55 150.041 162.323 150.041 162.07C150.041 161.77 149.935 161.51 149.721 161.29C149.515 161.07 149.231 160.903 148.871 160.79C148.511 160.67 148.101 160.617 147.641 160.63C147.335 160.637 147.025 160.683 146.711 160.77C146.405 160.85 146.091 160.967 145.771 161.12L146.031 161.87C146.318 161.73 146.598 161.627 146.871 161.56C147.151 161.493 147.425 161.457 147.691 161.45C147.965 161.45 148.201 161.48 148.401 161.54C148.608 161.6 148.768 161.687 148.881 161.8C148.995 161.913 149.051 162.05 149.051 162.21C149.051 162.357 149.001 162.487 148.901 162.6C148.808 162.707 148.675 162.787 148.501 162.84C148.328 162.893 148.125 162.92 147.891 162.92H146.991V163.61H147.951C148.345 163.61 148.651 163.677 148.871 163.81C149.091 163.943 149.201 164.133 149.201 164.38C149.201 164.553 149.141 164.707 149.021 164.84C148.901 164.967 148.728 165.067 148.501 165.14C148.281 165.213 148.018 165.25 147.711 165.25C147.378 165.25 147.048 165.207 146.721 165.12C146.395 165.027 146.105 164.9 145.851 164.74L145.561 165.47C145.861 165.663 146.201 165.813 146.581 165.92C146.968 166.02 147.361 166.07 147.761 166.07ZM153.921 166.06C153.387 166.06 152.914 165.943 152.501 165.71C152.087 165.477 151.761 165.157 151.521 164.75C151.281 164.337 151.161 163.87 151.161 163.35C151.161 162.823 151.281 162.357 151.521 161.95C151.761 161.543 152.087 161.227 152.501 161C152.914 160.767 153.387 160.65 153.921 160.65C154.447 160.65 154.917 160.767 155.331 161C155.751 161.227 156.077 161.543 156.311 161.95C156.551 162.35 156.671 162.817 156.671 163.35C156.671 163.877 156.551 164.343 156.311 164.75C156.077 165.157 155.751 165.477 155.331 165.71C154.917 165.943 154.447 166.06 153.921 166.06ZM153.921 165.22C154.261 165.22 154.564 165.143 154.831 164.99C155.104 164.837 155.317 164.62 155.471 164.34C155.624 164.053 155.701 163.723 155.701 163.35C155.701 162.97 155.624 162.643 155.471 162.37C155.317 162.09 155.104 161.873 154.831 161.72C154.564 161.567 154.261 161.49 153.921 161.49C153.581 161.49 153.277 161.567 153.011 161.72C152.744 161.873 152.531 162.09 152.371 162.37C152.211 162.643 152.131 162.97 152.131 163.35C152.131 163.723 152.211 164.053 152.371 164.34C152.531 164.62 152.744 164.837 153.011 164.99C153.277 165.143 153.581 165.22 153.921 165.22ZM158.057 166V160.7H160.517C161.137 160.7 161.624 160.82 161.977 161.06C162.337 161.293 162.517 161.627 162.517 162.06C162.517 162.493 162.347 162.83 162.007 163.07C161.674 163.303 161.23 163.42 160.677 163.42L160.827 163.16C161.46 163.16 161.93 163.277 162.237 163.51C162.544 163.743 162.697 164.087 162.697 164.54C162.697 165 162.524 165.36 162.177 165.62C161.837 165.873 161.314 166 160.607 166H158.057ZM158.997 165.26H160.537C160.937 165.26 161.237 165.2 161.437 165.08C161.637 164.953 161.737 164.753 161.737 164.48C161.737 164.2 161.644 163.997 161.457 163.87C161.277 163.737 160.99 163.67 160.597 163.67H158.997V165.26ZM158.997 162.98H160.437C160.804 162.98 161.08 162.913 161.267 162.78C161.46 162.64 161.557 162.447 161.557 162.2C161.557 161.947 161.46 161.757 161.267 161.63C161.08 161.503 160.804 161.44 160.437 161.44H158.997V162.98ZM167.45 166V164.88L167.4 164.67V162.76C167.4 162.353 167.28 162.04 167.04 161.82C166.806 161.593 166.453 161.48 165.98 161.48C165.666 161.48 165.36 161.533 165.06 161.64C164.76 161.74 164.506 161.877 164.3 162.05L163.9 161.33C164.173 161.11 164.5 160.943 164.88 160.83C165.266 160.71 165.67 160.65 166.09 160.65C166.816 160.65 167.376 160.827 167.77 161.18C168.163 161.533 168.36 162.073 168.36 162.8V166H167.45ZM165.71 166.06C165.316 166.06 164.97 165.993 164.67 165.86C164.376 165.727 164.15 165.543 163.99 165.31C163.83 165.07 163.75 164.8 163.75 164.5C163.75 164.213 163.816 163.953 163.95 163.72C164.09 163.487 164.313 163.3 164.62 163.16C164.933 163.02 165.353 162.95 165.88 162.95H167.56V163.64H165.92C165.44 163.64 165.116 163.72 164.95 163.88C164.783 164.04 164.7 164.233 164.7 164.46C164.7 164.72 164.803 164.93 165.01 165.09C165.216 165.243 165.503 165.32 165.87 165.32C166.23 165.32 166.543 165.24 166.81 165.08C167.083 164.92 167.28 164.687 167.4 164.38L167.59 165.04C167.463 165.353 167.24 165.603 166.92 165.79C166.6 165.97 166.196 166.06 165.71 166.06ZM170.088 166V160.7H171.048V162.95H174.068V160.7H175.028V166H174.068V163.78H171.048V166H170.088ZM179.165 166.06C178.632 166.06 178.158 165.943 177.745 165.71C177.332 165.477 177.005 165.157 176.765 164.75C176.525 164.337 176.405 163.87 176.405 163.35C176.405 162.823 176.525 162.357 176.765 161.95C177.005 161.543 177.332 161.227 177.745 161C178.158 160.767 178.632 160.65 179.165 160.65C179.692 160.65 180.162 160.767 180.575 161C180.995 161.227 181.322 161.543 181.555 161.95C181.795 162.35 181.915 162.817 181.915 163.35C181.915 163.877 181.795 164.343 181.555 164.75C181.322 165.157 180.995 165.477 180.575 165.71C180.162 165.943 179.692 166.06 179.165 166.06ZM179.165 165.22C179.505 165.22 179.808 165.143 180.075 164.99C180.348 164.837 180.562 164.62 180.715 164.34C180.868 164.053 180.945 163.723 180.945 163.35C180.945 162.97 180.868 162.643 180.715 162.37C180.562 162.09 180.348 161.873 180.075 161.72C179.808 161.567 179.505 161.49 179.165 161.49C178.825 161.49 178.522 161.567 178.255 161.72C177.988 161.873 177.775 162.09 177.615 162.37C177.455 162.643 177.375 162.97 177.375 163.35C177.375 163.723 177.455 164.053 177.615 164.34C177.775 164.62 177.988 164.837 178.255 164.99C178.522 165.143 178.825 165.22 179.165 165.22ZM185.987 166V160.7H186.947V164.56L190.197 160.7H191.067V166H190.107V162.14L186.867 166H185.987ZM22.8616 181V175.7H27.7716V181H26.8116V176.3L27.0416 176.54H23.5916L23.8216 176.3V181H22.8616ZM32.4392 181.06C31.9992 181.06 31.5959 180.96 31.2292 180.76C30.8692 180.553 30.5792 180.25 30.3592 179.85C30.1459 179.45 30.0392 178.95 30.0392 178.35C30.0392 177.75 30.1426 177.25 30.3492 176.85C30.5626 176.45 30.8492 176.15 31.2092 175.95C31.5759 175.75 31.9859 175.65 32.4392 175.65C32.9592 175.65 33.4192 175.763 33.8192 175.99C34.2192 176.217 34.5359 176.533 34.7692 176.94C35.0026 177.34 35.1192 177.81 35.1192 178.35C35.1192 178.89 35.0026 179.363 34.7692 179.77C34.5359 180.177 34.2192 180.493 33.8192 180.72C33.4192 180.947 32.9592 181.06 32.4392 181.06ZM29.6292 182.94V175.7H30.5492V177.13L30.4892 178.36L30.5892 179.59V182.94H29.6292ZM32.3592 180.22C32.6992 180.22 33.0026 180.143 33.2692 179.99C33.5426 179.837 33.7559 179.62 33.9092 179.34C34.0692 179.053 34.1492 178.723 34.1492 178.35C34.1492 177.97 34.0692 177.643 33.9092 177.37C33.7559 177.09 33.5426 176.873 33.2692 176.72C33.0026 176.567 32.6992 176.49 32.3592 176.49C32.0259 176.49 31.7226 176.567 31.4492 176.72C31.1826 176.873 30.9692 177.09 30.8092 177.37C30.6559 177.643 30.5792 177.97 30.5792 178.35C30.5792 178.723 30.6559 179.053 30.8092 179.34C30.9692 179.62 31.1826 179.837 31.4492 179.99C31.7226 180.143 32.0259 180.22 32.3592 180.22ZM36.514 181V175.7H37.474V179.56L40.724 175.7H41.594V181H40.634V177.14L37.394 181H36.514ZM43.4573 181V175.7H44.4173V177.95H47.4373V175.7H48.3973V181H47.4373V178.78H44.4173V181H43.4573ZM53.654 181V179.14L53.804 179.32H52.114C51.4073 179.32 50.854 179.17 50.454 178.87C50.0607 178.57 49.864 178.133 49.864 177.56C49.864 176.947 50.074 176.483 50.494 176.17C50.9207 175.857 51.4873 175.7 52.194 175.7H54.514V181H53.654ZM49.814 181L51.254 178.97H52.244L50.844 181H49.814ZM53.654 178.84V176.27L53.804 176.54H52.224C51.784 176.54 51.444 176.623 51.204 176.79C50.964 176.95 50.844 177.217 50.844 177.59C50.844 178.283 51.2907 178.63 52.184 178.63H53.804L53.654 178.84ZM57.437 181V176.29L57.677 176.54H55.497V175.7H60.337V176.54H58.167L58.397 176.29V181H57.437ZM63.3543 181.06C62.821 181.06 62.3476 180.943 61.9343 180.71C61.521 180.477 61.1943 180.157 60.9543 179.75C60.7143 179.337 60.5943 178.87 60.5943 178.35C60.5943 177.823 60.7143 177.357 60.9543 176.95C61.1943 176.543 61.521 176.227 61.9343 176C62.3476 175.767 62.821 175.65 63.3543 175.65C63.881 175.65 64.351 175.767 64.7643 176C65.1843 176.227 65.511 176.543 65.7443 176.95C65.9843 177.35 66.1043 177.817 66.1043 178.35C66.1043 178.877 65.9843 179.343 65.7443 179.75C65.511 180.157 65.1843 180.477 64.7643 180.71C64.351 180.943 63.881 181.06 63.3543 181.06ZM63.3543 180.22C63.6943 180.22 63.9976 180.143 64.2643 179.99C64.5376 179.837 64.751 179.62 64.9043 179.34C65.0576 179.053 65.1343 178.723 65.1343 178.35C65.1343 177.97 65.0576 177.643 64.9043 177.37C64.751 177.09 64.5376 176.873 64.2643 176.72C63.9976 176.567 63.6943 176.49 63.3543 176.49C63.0143 176.49 62.711 176.567 62.4443 176.72C62.1776 176.873 61.9643 177.09 61.8043 177.37C61.6443 177.643 61.5643 177.97 61.5643 178.35C61.5643 178.723 61.6443 179.053 61.8043 179.34C61.9643 179.62 62.1776 179.837 62.4443 179.99C62.711 180.143 63.0143 180.22 63.3543 180.22ZM70.1761 181V175.7H72.6361C73.2561 175.7 73.7428 175.82 74.0961 176.06C74.4561 176.293 74.6361 176.627 74.6361 177.06C74.6361 177.493 74.4661 177.83 74.1261 178.07C73.7928 178.303 73.3494 178.42 72.7961 178.42L72.9461 178.16C73.5794 178.16 74.0494 178.277 74.3561 178.51C74.6628 178.743 74.8161 179.087 74.8161 179.54C74.8161 180 74.6428 180.36 74.2961 180.62C73.9561 180.873 73.4328 181 72.7261 181H70.1761ZM71.1161 180.26H72.6561C73.0561 180.26 73.3561 180.2 73.5561 180.08C73.7561 179.953 73.8561 179.753 73.8561 179.48C73.8561 179.2 73.7628 178.997 73.5761 178.87C73.3961 178.737 73.1094 178.67 72.7161 178.67H71.1161V180.26ZM71.1161 177.98H72.5561C72.9228 177.98 73.1994 177.913 73.3861 177.78C73.5794 177.64 73.6761 177.447 73.6761 177.2C73.6761 176.947 73.5794 176.757 73.3861 176.63C73.1994 176.503 72.9228 176.44 72.5561 176.44H71.1161V177.98ZM78.5887 181.06C78.0553 181.06 77.582 180.943 77.1687 180.71C76.7553 180.477 76.4287 180.157 76.1887 179.75C75.9487 179.337 75.8287 178.87 75.8287 178.35C75.8287 177.823 75.9487 177.357 76.1887 176.95C76.4287 176.543 76.7553 176.227 77.1687 176C77.582 175.767 78.0553 175.65 78.5887 175.65C79.1153 175.65 79.5853 175.767 79.9987 176C80.4187 176.227 80.7453 176.543 80.9787 176.95C81.2187 177.35 81.3387 177.817 81.3387 178.35C81.3387 178.877 81.2187 179.343 80.9787 179.75C80.7453 180.157 80.4187 180.477 79.9987 180.71C79.5853 180.943 79.1153 181.06 78.5887 181.06ZM78.5887 180.22C78.9287 180.22 79.232 180.143 79.4987 179.99C79.772 179.837 79.9853 179.62 80.1387 179.34C80.292 179.053 80.3687 178.723 80.3687 178.35C80.3687 177.97 80.292 177.643 80.1387 177.37C79.9853 177.09 79.772 176.873 79.4987 176.72C79.232 176.567 78.9287 176.49 78.5887 176.49C78.2487 176.49 77.9453 176.567 77.6787 176.72C77.412 176.873 77.1987 177.09 77.0387 177.37C76.8787 177.643 76.7987 177.97 76.7987 178.35C76.7987 178.723 76.8787 179.053 77.0387 179.34C77.1987 179.62 77.412 179.837 77.6787 179.99C77.9453 180.143 78.2487 180.22 78.5887 180.22ZM85.4105 181V175.7H87.8705C88.4905 175.7 88.9771 175.82 89.3305 176.06C89.6905 176.293 89.8705 176.627 89.8705 177.06C89.8705 177.493 89.7005 177.83 89.3605 178.07C89.0271 178.303 88.5838 178.42 88.0305 178.42L88.1805 178.16C88.8138 178.16 89.2838 178.277 89.5905 178.51C89.8971 178.743 90.0505 179.087 90.0505 179.54C90.0505 180 89.8771 180.36 89.5305 180.62C89.1905 180.873 88.6671 181 87.9605 181H85.4105ZM86.3505 180.26H87.8905C88.2905 180.26 88.5905 180.2 88.7905 180.08C88.9905 179.953 89.0905 179.753 89.0905 179.48C89.0905 179.2 88.9971 178.997 88.8105 178.87C88.6305 178.737 88.3438 178.67 87.9505 178.67H86.3505V180.26ZM86.3505 177.98H87.7905C88.1571 177.98 88.4338 177.913 88.6205 177.78C88.8138 177.64 88.9105 177.447 88.9105 177.2C88.9105 176.947 88.8138 176.757 88.6205 176.63C88.4338 176.503 88.1571 176.44 87.7905 176.44H86.3505V177.98ZM91.553 181V175.7H92.513V177.95H95.533V175.7H96.493V181H95.533V178.78H92.513V181H91.553ZM98.3597 181V175.7H99.3197V179.56L102.57 175.7H103.44V181H102.48V177.14L99.2397 181H98.3597ZM105.303 181V175.7H106.293L108.573 179.62H108.173L110.513 175.7H111.413V181H110.543V176.78L110.703 176.87L108.563 180.4H108.143L105.993 176.8L106.183 176.76V181H105.303ZM116.532 181V179.88L116.482 179.67V177.76C116.482 177.353 116.362 177.04 116.122 176.82C115.888 176.593 115.535 176.48 115.062 176.48C114.748 176.48 114.442 176.533 114.142 176.64C113.842 176.74 113.588 176.877 113.382 177.05L112.982 176.33C113.255 176.11 113.582 175.943 113.962 175.83C114.348 175.71 114.752 175.65 115.172 175.65C115.898 175.65 116.458 175.827 116.852 176.18C117.245 176.533 117.442 177.073 117.442 177.8V181H116.532ZM114.792 181.06C114.398 181.06 114.052 180.993 113.752 180.86C113.458 180.727 113.232 180.543 113.072 180.31C112.912 180.07 112.832 179.8 112.832 179.5C112.832 179.213 112.898 178.953 113.032 178.72C113.172 178.487 113.395 178.3 113.702 178.16C114.015 178.02 114.435 177.95 114.962 177.95H116.642V178.64H115.002C114.522 178.64 114.198 178.72 114.032 178.88C113.865 179.04 113.782 179.233 113.782 179.46C113.782 179.72 113.885 179.93 114.092 180.09C114.298 180.243 114.585 180.32 114.952 180.32C115.312 180.32 115.625 180.24 115.892 180.08C116.165 179.92 116.362 179.687 116.482 179.38L116.672 180.04C116.545 180.353 116.322 180.603 116.002 180.79C115.682 180.97 115.278 181.06 114.792 181.06ZM119.17 181V175.7H120.13V177.95H123.15V175.7H124.11V181H123.15V178.78H120.13V181H119.17ZM125.977 181V175.7H126.937V179.56L130.187 175.7H131.057V181H130.097V177.14L126.857 181H125.977ZM135.28 181.06C134.714 181.06 134.214 180.943 133.78 180.71C133.354 180.477 133.02 180.157 132.78 179.75C132.547 179.343 132.43 178.877 132.43 178.35C132.43 177.823 132.544 177.357 132.77 176.95C133.004 176.543 133.32 176.227 133.72 176C134.127 175.767 134.584 175.65 135.09 175.65C135.604 175.65 136.057 175.763 136.45 175.99C136.844 176.217 137.15 176.537 137.37 176.95C137.597 177.357 137.71 177.833 137.71 178.38C137.71 178.42 137.707 178.467 137.7 178.52C137.7 178.573 137.697 178.623 137.69 178.67H133.18V177.98H137.19L136.8 178.22C136.807 177.88 136.737 177.577 136.59 177.31C136.444 177.043 136.24 176.837 135.98 176.69C135.727 176.537 135.43 176.46 135.09 176.46C134.757 176.46 134.46 176.537 134.2 176.69C133.94 176.837 133.737 177.047 133.59 177.32C133.444 177.587 133.37 177.893 133.37 178.24V178.4C133.37 178.753 133.45 179.07 133.61 179.35C133.777 179.623 134.007 179.837 134.3 179.99C134.594 180.143 134.93 180.22 135.31 180.22C135.624 180.22 135.907 180.167 136.16 180.06C136.42 179.953 136.647 179.793 136.84 179.58L137.37 180.2C137.13 180.48 136.83 180.693 136.47 180.84C136.117 180.987 135.72 181.06 135.28 181.06ZM138.8 182.48L139.3 180.46L139.43 181.04C139.236 181.04 139.073 180.98 138.94 180.86C138.813 180.74 138.75 180.577 138.75 180.37C138.75 180.17 138.813 180.007 138.94 179.88C139.073 179.753 139.233 179.69 139.42 179.69C139.613 179.69 139.77 179.757 139.89 179.89C140.01 180.017 140.07 180.177 140.07 180.37C140.07 180.437 140.063 180.503 140.05 180.57C140.043 180.63 140.026 180.703 140 180.79C139.98 180.87 139.946 180.97 139.9 181.09L139.43 182.48H138.8ZM147.491 178.83C147.211 178.963 146.921 179.07 146.621 179.15C146.327 179.223 146.024 179.26 145.711 179.26C145.071 179.26 144.564 179.11 144.191 178.81C143.824 178.51 143.641 178.047 143.641 177.42V175.7H144.601V177.36C144.601 177.74 144.717 178.02 144.951 178.2C145.191 178.38 145.511 178.47 145.911 178.47C146.164 178.47 146.424 178.437 146.691 178.37C146.964 178.303 147.231 178.21 147.491 178.09V178.83ZM147.421 181V175.7H148.381V181H147.421ZM151.294 181V176.29L151.534 176.54H149.354V175.7H154.194V176.54H152.024L152.254 176.29V181H151.294ZM157.212 181.06C156.678 181.06 156.205 180.943 155.792 180.71C155.378 180.477 155.052 180.157 154.812 179.75C154.572 179.337 154.452 178.87 154.452 178.35C154.452 177.823 154.572 177.357 154.812 176.95C155.052 176.543 155.378 176.227 155.792 176C156.205 175.767 156.678 175.65 157.212 175.65C157.738 175.65 158.208 175.767 158.622 176C159.042 176.227 159.368 176.543 159.602 176.95C159.842 177.35 159.962 177.817 159.962 178.35C159.962 178.877 159.842 179.343 159.602 179.75C159.368 180.157 159.042 180.477 158.622 180.71C158.208 180.943 157.738 181.06 157.212 181.06ZM157.212 180.22C157.552 180.22 157.855 180.143 158.122 179.99C158.395 179.837 158.608 179.62 158.762 179.34C158.915 179.053 158.992 178.723 158.992 178.35C158.992 177.97 158.915 177.643 158.762 177.37C158.608 177.09 158.395 176.873 158.122 176.72C157.855 176.567 157.552 176.49 157.212 176.49C156.872 176.49 156.568 176.567 156.302 176.72C156.035 176.873 155.822 177.09 155.662 177.37C155.502 177.643 155.422 177.97 155.422 178.35C155.422 178.723 155.502 179.053 155.662 179.34C155.822 179.62 156.035 179.837 156.302 179.99C156.568 180.143 156.872 180.22 157.212 180.22ZM163.798 181.08C163.358 181.08 162.968 181.01 162.628 180.87C162.295 180.73 162.008 180.523 161.768 180.25C161.528 179.97 161.345 179.62 161.218 179.2C161.098 178.773 161.038 178.273 161.038 177.7C161.038 177.247 161.078 176.84 161.158 176.48C161.238 176.12 161.351 175.8 161.498 175.52C161.651 175.24 161.838 174.997 162.058 174.79C162.285 174.583 162.538 174.413 162.818 174.28C163.105 174.14 163.418 174.033 163.758 173.96L166.178 173.42L166.318 174.31L164.088 174.79C163.955 174.817 163.795 174.857 163.608 174.91C163.421 174.963 163.231 175.047 163.038 175.16C162.845 175.267 162.665 175.417 162.498 175.61C162.331 175.803 162.198 176.057 162.098 176.37C161.998 176.677 161.948 177.057 161.948 177.51C161.948 177.637 161.951 177.733 161.958 177.8C161.965 177.867 161.971 177.933 161.978 178C161.991 178.067 162.001 178.167 162.008 178.3L161.608 177.89C161.715 177.523 161.885 177.203 162.118 176.93C162.351 176.657 162.631 176.447 162.958 176.3C163.291 176.147 163.655 176.07 164.048 176.07C164.541 176.07 164.978 176.177 165.358 176.39C165.745 176.603 166.048 176.897 166.268 177.27C166.488 177.643 166.598 178.07 166.598 178.55C166.598 179.037 166.481 179.473 166.248 179.86C166.021 180.24 165.698 180.54 165.278 180.76C164.858 180.973 164.365 181.08 163.798 181.08ZM163.888 180.28C164.228 180.28 164.528 180.207 164.788 180.06C165.048 179.907 165.251 179.703 165.398 179.45C165.545 179.19 165.618 178.9 165.618 178.58C165.618 178.26 165.545 177.977 165.398 177.73C165.251 177.483 165.048 177.29 164.788 177.15C164.528 177.003 164.221 176.93 163.868 176.93C163.535 176.93 163.235 177 162.968 177.14C162.701 177.273 162.495 177.463 162.348 177.71C162.201 177.95 162.128 178.23 162.128 178.55C162.128 178.87 162.201 179.163 162.348 179.43C162.501 179.69 162.708 179.897 162.968 180.05C163.235 180.203 163.541 180.28 163.888 180.28ZM173.209 181V175.7H174.169V181H173.209ZM170.359 177.5C171.032 177.507 171.542 177.66 171.889 177.96C172.242 178.26 172.419 178.683 172.419 179.23C172.419 179.803 172.226 180.247 171.839 180.56C171.459 180.867 170.912 181.017 170.199 181.01L167.969 181V175.7H168.929V177.49L170.359 177.5ZM170.129 180.28C170.556 180.287 170.882 180.2 171.109 180.02C171.336 179.84 171.449 179.573 171.449 179.22C171.449 178.873 171.336 178.62 171.109 178.46C170.889 178.3 170.562 178.217 170.129 178.21L168.929 178.19V180.27L170.129 180.28ZM178.721 181V175.7H181.181C181.801 175.7 182.288 175.82 182.641 176.06C183.001 176.293 183.181 176.627 183.181 177.06C183.181 177.493 183.011 177.83 182.671 178.07C182.338 178.303 181.894 178.42 181.341 178.42L181.491 178.16C182.124 178.16 182.594 178.277 182.901 178.51C183.208 178.743 183.361 179.087 183.361 179.54C183.361 180 183.188 180.36 182.841 180.62C182.501 180.873 181.978 181 181.271 181H178.721ZM179.661 180.26H181.201C181.601 180.26 181.901 180.2 182.101 180.08C182.301 179.953 182.401 179.753 182.401 179.48C182.401 179.2 182.308 178.997 182.121 178.87C181.941 178.737 181.654 178.67 181.261 178.67H179.661V180.26ZM179.661 177.98H181.101C181.468 177.98 181.744 177.913 181.931 177.78C182.124 177.64 182.221 177.447 182.221 177.2C182.221 176.947 182.124 176.757 181.931 176.63C181.744 176.503 181.468 176.44 181.101 176.44H179.661V177.98ZM190.104 181V175.7H191.064V181H190.104ZM187.254 177.5C187.927 177.507 188.437 177.66 188.784 177.96C189.137 178.26 189.314 178.683 189.314 179.23C189.314 179.803 189.12 180.247 188.734 180.56C188.354 180.867 187.807 181.017 187.094 181.01L184.864 181V175.7H185.824V177.49L187.254 177.5ZM187.024 180.28C187.45 180.287 187.777 180.2 188.004 180.02C188.23 179.84 188.344 179.573 188.344 179.22C188.344 178.873 188.23 178.62 188.004 178.46C187.784 178.3 187.457 178.217 187.024 178.21L185.824 178.19V180.27L187.024 180.28ZM29.18 196V190.7H30.17L32.45 194.62H32.05L34.39 190.7H35.29V196H34.42V191.78L34.58 191.87L32.44 195.4H32.02L29.87 191.8L30.06 191.76V196H29.18ZM39.4285 196.06C38.8952 196.06 38.4218 195.943 38.0085 195.71C37.5952 195.477 37.2685 195.157 37.0285 194.75C36.7885 194.337 36.6685 193.87 36.6685 193.35C36.6685 192.823 36.7885 192.357 37.0285 191.95C37.2685 191.543 37.5952 191.227 38.0085 191C38.4218 190.767 38.8952 190.65 39.4285 190.65C39.9552 190.65 40.4252 190.767 40.8385 191C41.2585 191.227 41.5852 191.543 41.8185 191.95C42.0585 192.35 42.1785 192.817 42.1785 193.35C42.1785 193.877 42.0585 194.343 41.8185 194.75C41.5852 195.157 41.2585 195.477 40.8385 195.71C40.4252 195.943 39.9552 196.06 39.4285 196.06ZM39.4285 195.22C39.7685 195.22 40.0718 195.143 40.3385 194.99C40.6118 194.837 40.8252 194.62 40.9785 194.34C41.1318 194.053 41.2085 193.723 41.2085 193.35C41.2085 192.97 41.1318 192.643 40.9785 192.37C40.8252 192.09 40.6118 191.873 40.3385 191.72C40.0718 191.567 39.7685 191.49 39.4285 191.49C39.0885 191.49 38.7852 191.567 38.5185 191.72C38.2518 191.873 38.0385 192.09 37.8785 192.37C37.7185 192.643 37.6385 192.97 37.6385 193.35C37.6385 193.723 37.7185 194.053 37.8785 194.34C38.0385 194.62 38.2518 194.837 38.5185 194.99C38.7852 195.143 39.0885 195.22 39.4285 195.22ZM43.5648 196V190.7H47.4648V191.54H44.2948L44.5248 191.32V196H43.5648ZM47.2258 195.99L47.2858 195.18C47.3324 195.187 47.3758 195.193 47.4158 195.2C47.4558 195.207 47.4924 195.21 47.5258 195.21C47.7391 195.21 47.9058 195.137 48.0258 194.99C48.1524 194.843 48.2458 194.65 48.3058 194.41C48.3658 194.163 48.4091 193.887 48.4358 193.58C48.4624 193.273 48.4824 192.967 48.4958 192.66L48.5858 190.7H52.6558V196H51.6958V191.26L51.9258 191.54H49.2058L49.4258 191.25L49.3558 192.72C49.3358 193.187 49.2991 193.623 49.2458 194.03C49.1924 194.437 49.1091 194.793 48.9958 195.1C48.8891 195.407 48.7391 195.647 48.5458 195.82C48.3591 195.993 48.1158 196.08 47.8158 196.08C47.7291 196.08 47.6358 196.07 47.5358 196.05C47.4424 196.037 47.3391 196.017 47.2258 195.99ZM54.512 196V190.7H55.472V194.56L58.722 190.7H59.592V196H58.632V192.14L55.392 196H54.512ZM64.1409 196V190.7H69.0509V196H68.0909V191.3L68.3209 191.54H64.8709L65.1009 191.3V196H64.1409ZM73.7185 196.06C73.2785 196.06 72.8752 195.96 72.5085 195.76C72.1485 195.553 71.8585 195.25 71.6385 194.85C71.4252 194.45 71.3185 193.95 71.3185 193.35C71.3185 192.75 71.4218 192.25 71.6285 191.85C71.8418 191.45 72.1285 191.15 72.4885 190.95C72.8552 190.75 73.2652 190.65 73.7185 190.65C74.2385 190.65 74.6985 190.763 75.0985 190.99C75.4985 191.217 75.8152 191.533 76.0485 191.94C76.2818 192.34 76.3985 192.81 76.3985 193.35C76.3985 193.89 76.2818 194.363 76.0485 194.77C75.8152 195.177 75.4985 195.493 75.0985 195.72C74.6985 195.947 74.2385 196.06 73.7185 196.06ZM70.9085 197.94V190.7H71.8285V192.13L71.7685 193.36L71.8685 194.59V197.94H70.9085ZM73.6385 195.22C73.9785 195.22 74.2818 195.143 74.5485 194.99C74.8218 194.837 75.0352 194.62 75.1885 194.34C75.3485 194.053 75.4285 193.723 75.4285 193.35C75.4285 192.97 75.3485 192.643 75.1885 192.37C75.0352 192.09 74.8218 191.873 74.5485 191.72C74.2818 191.567 73.9785 191.49 73.6385 191.49C73.3052 191.49 73.0018 191.567 72.7285 191.72C72.4618 191.873 72.2485 192.09 72.0885 192.37C71.9352 192.643 71.8585 192.97 71.8585 193.35C71.8585 193.723 71.9352 194.053 72.0885 194.34C72.2485 194.62 72.4618 194.837 72.7285 194.99C73.0018 195.143 73.3052 195.22 73.6385 195.22ZM80.1533 196.06C79.5866 196.06 79.0866 195.943 78.6533 195.71C78.2266 195.477 77.8933 195.157 77.6533 194.75C77.4199 194.343 77.3033 193.877 77.3033 193.35C77.3033 192.823 77.4166 192.357 77.6433 191.95C77.8766 191.543 78.1933 191.227 78.5933 191C78.9999 190.767 79.4566 190.65 79.9633 190.65C80.4766 190.65 80.9299 190.763 81.3233 190.99C81.7166 191.217 82.0233 191.537 82.2433 191.95C82.4699 192.357 82.5833 192.833 82.5833 193.38C82.5833 193.42 82.5799 193.467 82.5733 193.52C82.5733 193.573 82.5699 193.623 82.5633 193.67H78.0533V192.98H82.0633L81.6733 193.22C81.6799 192.88 81.6099 192.577 81.4633 192.31C81.3166 192.043 81.1133 191.837 80.8533 191.69C80.5999 191.537 80.3033 191.46 79.9633 191.46C79.6299 191.46 79.3333 191.537 79.0733 191.69C78.8133 191.837 78.6099 192.047 78.4633 192.32C78.3166 192.587 78.2433 192.893 78.2433 193.24V193.4C78.2433 193.753 78.3233 194.07 78.4833 194.35C78.6499 194.623 78.8799 194.837 79.1733 194.99C79.4666 195.143 79.8033 195.22 80.1833 195.22C80.4966 195.22 80.7799 195.167 81.0333 195.06C81.2933 194.953 81.5199 194.793 81.7133 194.58L82.2433 195.2C82.0033 195.48 81.7033 195.693 81.3433 195.84C80.9899 195.987 80.5933 196.06 80.1533 196.06ZM84.2449 198C83.9916 198 83.7449 197.957 83.5049 197.87C83.2649 197.79 83.0583 197.67 82.8849 197.51L83.2949 196.79C83.4283 196.917 83.5749 197.013 83.7349 197.08C83.8949 197.147 84.0649 197.18 84.2449 197.18C84.4783 197.18 84.6716 197.12 84.8249 197C84.9783 196.88 85.1216 196.667 85.2549 196.36L85.5849 195.63L85.6849 195.51L87.7649 190.7H88.7049L86.1349 196.53C85.9816 196.903 85.8083 197.197 85.6149 197.41C85.4283 197.623 85.2216 197.773 84.9949 197.86C84.7683 197.953 84.5183 198 84.2449 198ZM85.5049 196.17L83.0849 190.7H84.0849L86.1449 195.42L85.5049 196.17ZM91.8513 196.06C91.3113 196.06 90.828 195.943 90.4013 195.71C89.9813 195.477 89.6513 195.157 89.4113 194.75C89.1713 194.343 89.0513 193.877 89.0513 193.35C89.0513 192.823 89.1713 192.357 89.4113 191.95C89.6513 191.543 89.9813 191.227 90.4013 191C90.828 190.767 91.3113 190.65 91.8513 190.65C92.3313 190.65 92.758 190.747 93.1313 190.94C93.5113 191.127 93.8047 191.407 94.0113 191.78L93.2813 192.25C93.108 191.99 92.8947 191.8 92.6413 191.68C92.3947 191.553 92.128 191.49 91.8413 191.49C91.4947 191.49 91.1847 191.567 90.9113 191.72C90.638 191.873 90.4213 192.09 90.2613 192.37C90.1013 192.643 90.0213 192.97 90.0213 193.35C90.0213 193.73 90.1013 194.06 90.2613 194.34C90.4213 194.62 90.638 194.837 90.9113 194.99C91.1847 195.143 91.4947 195.22 91.8413 195.22C92.128 195.22 92.3947 195.16 92.6413 195.04C92.8947 194.913 93.108 194.72 93.2813 194.46L94.0113 194.92C93.8047 195.287 93.5113 195.57 93.1313 195.77C92.758 195.963 92.3313 196.06 91.8513 196.06ZM95.2542 196V190.7H100.164V196H99.2042V191.3L99.4342 191.54H95.9842L96.2142 191.3V196H95.2542ZM104.382 196.06C103.815 196.06 103.315 195.943 102.882 195.71C102.455 195.477 102.122 195.157 101.882 194.75C101.648 194.343 101.532 193.877 101.532 193.35C101.532 192.823 101.645 192.357 101.872 191.95C102.105 191.543 102.422 191.227 102.822 191C103.228 190.767 103.685 190.65 104.192 190.65C104.705 190.65 105.158 190.763 105.552 190.99C105.945 191.217 106.252 191.537 106.472 191.95C106.698 192.357 106.812 192.833 106.812 193.38C106.812 193.42 106.808 193.467 106.802 193.52C106.802 193.573 106.798 193.623 106.792 193.67H102.282V192.98H106.292L105.902 193.22C105.908 192.88 105.838 192.577 105.692 192.31C105.545 192.043 105.342 191.837 105.082 191.69C104.828 191.537 104.532 191.46 104.192 191.46C103.858 191.46 103.562 191.537 103.302 191.69C103.042 191.837 102.838 192.047 102.692 192.32C102.545 192.587 102.472 192.893 102.472 193.24V193.4C102.472 193.753 102.552 194.07 102.712 194.35C102.878 194.623 103.108 194.837 103.402 194.99C103.695 195.143 104.032 195.22 104.412 195.22C104.725 195.22 105.008 195.167 105.262 195.06C105.522 194.953 105.748 194.793 105.942 194.58L106.472 195.2C106.232 195.48 105.932 195.693 105.572 195.84C105.218 195.987 104.822 196.06 104.382 196.06ZM109.126 196V191.29L109.366 191.54H107.186V190.7H112.026V191.54H109.856L110.086 191.29V196H109.126ZM115.458 192.5C116.131 192.507 116.645 192.66 116.998 192.96C117.351 193.26 117.528 193.683 117.528 194.23C117.528 194.803 117.335 195.247 116.948 195.56C116.561 195.867 116.015 196.017 115.308 196.01L113.008 196V190.7H113.968V192.49L115.458 192.5ZM115.228 195.28C115.661 195.287 115.988 195.2 116.208 195.02C116.435 194.84 116.548 194.573 116.548 194.22C116.548 193.873 116.438 193.62 116.218 193.46C115.998 193.3 115.668 193.217 115.228 193.21L113.968 193.19V195.27L115.228 195.28ZM121.446 196V190.7H123.906C124.526 190.7 125.012 190.82 125.366 191.06C125.726 191.293 125.906 191.627 125.906 192.06C125.906 192.493 125.736 192.83 125.396 193.07C125.062 193.303 124.619 193.42 124.066 193.42L124.216 193.16C124.849 193.16 125.319 193.277 125.626 193.51C125.932 193.743 126.086 194.087 126.086 194.54C126.086 195 125.912 195.36 125.566 195.62C125.226 195.873 124.702 196 123.996 196H121.446ZM122.386 195.26H123.926C124.326 195.26 124.626 195.2 124.826 195.08C125.026 194.953 125.126 194.753 125.126 194.48C125.126 194.2 125.032 193.997 124.846 193.87C124.666 193.737 124.379 193.67 123.986 193.67H122.386V195.26ZM122.386 192.98H123.826C124.192 192.98 124.469 192.913 124.656 192.78C124.849 192.64 124.946 192.447 124.946 192.2C124.946 191.947 124.849 191.757 124.656 191.63C124.469 191.503 124.192 191.44 123.826 191.44H122.386V192.98ZM130.274 196V190.7H132.734C133.354 190.7 133.84 190.82 134.194 191.06C134.554 191.293 134.734 191.627 134.734 192.06C134.734 192.493 134.564 192.83 134.224 193.07C133.89 193.303 133.447 193.42 132.894 193.42L133.044 193.16C133.677 193.16 134.147 193.277 134.454 193.51C134.76 193.743 134.914 194.087 134.914 194.54C134.914 195 134.74 195.36 134.394 195.62C134.054 195.873 133.53 196 132.824 196H130.274ZM131.214 195.26H132.754C133.154 195.26 133.454 195.2 133.654 195.08C133.854 194.953 133.954 194.753 133.954 194.48C133.954 194.2 133.86 193.997 133.674 193.87C133.494 193.737 133.207 193.67 132.814 193.67H131.214V195.26ZM131.214 192.98H132.654C133.02 192.98 133.297 192.913 133.484 192.78C133.677 192.64 133.774 192.447 133.774 192.2C133.774 191.947 133.677 191.757 133.484 191.63C133.297 191.503 133.02 191.44 132.654 191.44H131.214V192.98ZM139.666 196V194.88L139.616 194.67V192.76C139.616 192.353 139.496 192.04 139.256 191.82C139.023 191.593 138.67 191.48 138.196 191.48C137.883 191.48 137.576 191.533 137.276 191.64C136.976 191.74 136.723 191.877 136.516 192.05L136.116 191.33C136.39 191.11 136.716 190.943 137.096 190.83C137.483 190.71 137.886 190.65 138.306 190.65C139.033 190.65 139.593 190.827 139.986 191.18C140.38 191.533 140.576 192.073 140.576 192.8V196H139.666ZM137.926 196.06C137.533 196.06 137.186 195.993 136.886 195.86C136.593 195.727 136.366 195.543 136.206 195.31C136.046 195.07 135.966 194.8 135.966 194.5C135.966 194.213 136.033 193.953 136.166 193.72C136.306 193.487 136.53 193.3 136.836 193.16C137.15 193.02 137.57 192.95 138.096 192.95H139.776V193.64H138.136C137.656 193.64 137.333 193.72 137.166 193.88C137 194.04 136.916 194.233 136.916 194.46C136.916 194.72 137.02 194.93 137.226 195.09C137.433 195.243 137.72 195.32 138.086 195.32C138.446 195.32 138.76 195.24 139.026 195.08C139.3 194.92 139.496 194.687 139.616 194.38L139.806 195.04C139.68 195.353 139.456 195.603 139.136 195.79C138.816 195.97 138.413 196.06 137.926 196.06ZM148.595 196L146.905 193.42L147.695 192.94L149.735 196H148.595ZM145.805 193.76V192.94H147.525V193.76H145.805ZM147.785 193.46L146.875 193.34L148.565 190.7H149.595L147.785 193.46ZM142.645 196H141.505L143.535 192.94L144.325 193.42L142.645 196ZM146.095 196H145.135V190.7H146.095V196ZM145.425 193.76H143.715V192.94H145.425V193.76ZM143.455 193.46L141.645 190.7H142.665L144.355 193.34L143.455 193.46ZM150.791 196V190.7H151.751V192.95H154.771V190.7H155.731V196H154.771V193.78H151.751V196H150.791ZM162.838 196V190.7H163.798V196H162.838ZM159.988 192.5C160.661 192.507 161.171 192.66 161.518 192.96C161.871 193.26 162.048 193.683 162.048 194.23C162.048 194.803 161.855 195.247 161.468 195.56C161.088 195.867 160.541 196.017 159.828 196.01L157.598 196V190.7H158.558V192.49L159.988 192.5ZM159.758 195.28C160.185 195.287 160.511 195.2 160.738 195.02C160.965 194.84 161.078 194.573 161.078 194.22C161.078 193.873 160.965 193.62 160.738 193.46C160.518 193.3 160.191 193.217 159.758 193.21L158.558 193.19V195.27L159.758 195.28ZM164.824 196L167.104 193.04L167.094 193.53L164.924 190.7H165.994L167.654 192.88H167.244L168.904 190.7H169.954L167.754 193.55L167.764 193.04L170.064 196H168.974L167.224 193.68L167.614 193.74L165.894 196H164.824ZM177.38 195.55V191.54H175.08L175.03 192.56C175.017 192.893 174.993 193.217 174.96 193.53C174.933 193.837 174.887 194.12 174.82 194.38C174.76 194.64 174.67 194.853 174.55 195.02C174.43 195.187 174.27 195.29 174.07 195.33L173.12 195.16C173.327 195.167 173.493 195.1 173.62 194.96C173.747 194.813 173.843 194.613 173.91 194.36C173.983 194.107 174.037 193.82 174.07 193.5C174.103 193.173 174.13 192.837 174.15 192.49L174.23 190.7H178.34V195.55H177.38ZM172.91 197.23V195.16H179.15V197.23H178.25V196H173.82V197.23H172.91ZM179.521 195.99L179.581 195.18C179.627 195.187 179.671 195.193 179.711 195.2C179.751 195.207 179.787 195.21 179.821 195.21C180.034 195.21 180.201 195.137 180.321 194.99C180.447 194.843 180.541 194.65 180.601 194.41C180.661 194.163 180.704 193.887 180.731 193.58C180.757 193.273 180.777 192.967 180.791 192.66L180.881 190.7H184.951V196H183.991V191.26L184.221 191.54H181.501L181.721 191.25L181.651 192.72C181.631 193.187 181.594 193.623 181.541 194.03C181.487 194.437 181.404 194.793 181.291 195.1C181.184 195.407 181.034 195.647 180.841 195.82C180.654 195.993 180.411 196.08 180.111 196.08C180.024 196.08 179.931 196.07 179.831 196.05C179.737 196.037 179.634 196.017 179.521 195.99ZM190.197 196V194.14L190.347 194.32H188.657C187.95 194.32 187.397 194.17 186.997 193.87C186.604 193.57 186.407 193.133 186.407 192.56C186.407 191.947 186.617 191.483 187.037 191.17C187.464 190.857 188.03 190.7 188.737 190.7H191.057V196H190.197ZM186.357 196L187.797 193.97H188.787L187.387 196H186.357ZM190.197 193.84V191.27L190.347 191.54H188.767C188.327 191.54 187.987 191.623 187.747 191.79C187.507 191.95 187.387 192.217 187.387 192.59C187.387 193.283 187.834 193.63 188.727 193.63H190.347L190.197 193.84ZM135.269 211.06C134.729 211.06 134.246 210.943 133.819 210.71C133.399 210.477 133.069 210.157 132.829 209.75C132.589 209.343 132.469 208.877 132.469 208.35C132.469 207.823 132.589 207.357 132.829 206.95C133.069 206.543 133.399 206.227 133.819 206C134.246 205.767 134.729 205.65 135.269 205.65C135.749 205.65 136.176 205.747 136.549 205.94C136.929 206.127 137.223 206.407 137.429 206.78L136.699 207.25C136.526 206.99 136.313 206.8 136.059 206.68C135.813 206.553 135.546 206.49 135.259 206.49C134.913 206.49 134.603 206.567 134.329 206.72C134.056 206.873 133.839 207.09 133.679 207.37C133.519 207.643 133.439 207.97 133.439 208.35C133.439 208.73 133.519 209.06 133.679 209.34C133.839 209.62 134.056 209.837 134.329 209.99C134.603 210.143 134.913 210.22 135.259 210.22C135.546 210.22 135.813 210.16 136.059 210.04C136.313 209.913 136.526 209.72 136.699 209.46L137.429 209.92C137.223 210.287 136.929 210.57 136.549 210.77C136.176 210.963 135.749 211.06 135.269 211.06ZM140.954 211.06C140.387 211.06 139.887 210.943 139.454 210.71C139.027 210.477 138.694 210.157 138.454 209.75C138.221 209.343 138.104 208.877 138.104 208.35C138.104 207.823 138.217 207.357 138.444 206.95C138.677 206.543 138.994 206.227 139.394 206C139.801 205.767 140.257 205.65 140.764 205.65C141.277 205.65 141.731 205.763 142.124 205.99C142.517 206.217 142.824 206.537 143.044 206.95C143.271 207.357 143.384 207.833 143.384 208.38C143.384 208.42 143.381 208.467 143.374 208.52C143.374 208.573 143.371 208.623 143.364 208.67H138.854V207.98H142.864L142.474 208.22C142.481 207.88 142.411 207.577 142.264 207.31C142.117 207.043 141.914 206.837 141.654 206.69C141.401 206.537 141.104 206.46 140.764 206.46C140.431 206.46 140.134 206.537 139.874 206.69C139.614 206.837 139.411 207.047 139.264 207.32C139.117 207.587 139.044 207.893 139.044 208.24V208.4C139.044 208.753 139.124 209.07 139.284 209.35C139.451 209.623 139.681 209.837 139.974 209.99C140.267 210.143 140.604 210.22 140.984 210.22C141.297 210.22 141.581 210.167 141.834 210.06C142.094 209.953 142.321 209.793 142.514 209.58L143.044 210.2C142.804 210.48 142.504 210.693 142.144 210.84C141.791 210.987 141.394 211.06 140.954 211.06ZM147.323 211.08C146.883 211.08 146.493 211.01 146.153 210.87C145.82 210.73 145.533 210.523 145.293 210.25C145.053 209.97 144.87 209.62 144.743 209.2C144.623 208.773 144.563 208.273 144.563 207.7C144.563 207.247 144.603 206.84 144.683 206.48C144.763 206.12 144.877 205.8 145.023 205.52C145.177 205.24 145.363 204.997 145.583 204.79C145.81 204.583 146.063 204.413 146.343 204.28C146.63 204.14 146.943 204.033 147.283 203.96L149.703 203.42L149.843 204.31L147.613 204.79C147.48 204.817 147.32 204.857 147.133 204.91C146.947 204.963 146.757 205.047 146.563 205.16C146.37 205.267 146.19 205.417 146.023 205.61C145.857 205.803 145.723 206.057 145.623 206.37C145.523 206.677 145.473 207.057 145.473 207.51C145.473 207.637 145.477 207.733 145.483 207.8C145.49 207.867 145.497 207.933 145.503 208C145.517 208.067 145.527 208.167 145.533 208.3L145.133 207.89C145.24 207.523 145.41 207.203 145.643 206.93C145.877 206.657 146.157 206.447 146.483 206.3C146.817 206.147 147.18 206.07 147.573 206.07C148.067 206.07 148.503 206.177 148.883 206.39C149.27 206.603 149.573 206.897 149.793 207.27C150.013 207.643 150.123 208.07 150.123 208.55C150.123 209.037 150.007 209.473 149.773 209.86C149.547 210.24 149.223 210.54 148.803 210.76C148.383 210.973 147.89 211.08 147.323 211.08ZM147.413 210.28C147.753 210.28 148.053 210.207 148.313 210.06C148.573 209.907 148.777 209.703 148.923 209.45C149.07 209.19 149.143 208.9 149.143 208.58C149.143 208.26 149.07 207.977 148.923 207.73C148.777 207.483 148.573 207.29 148.313 207.15C148.053 207.003 147.747 206.93 147.393 206.93C147.06 206.93 146.76 207 146.493 207.14C146.227 207.273 146.02 207.463 145.873 207.71C145.727 207.95 145.653 208.23 145.653 208.55C145.653 208.87 145.727 209.163 145.873 209.43C146.027 209.69 146.233 209.897 146.493 210.05C146.76 210.203 147.067 210.28 147.413 210.28ZM154.709 211V209.14L154.859 209.32H153.169C152.462 209.32 151.909 209.17 151.509 208.87C151.115 208.57 150.919 208.133 150.919 207.56C150.919 206.947 151.129 206.483 151.549 206.17C151.975 205.857 152.542 205.7 153.249 205.7H155.569V211H154.709ZM150.869 211L152.309 208.97H153.299L151.899 211H150.869ZM154.709 208.84V206.27L154.859 206.54H153.279C152.839 206.54 152.499 206.623 152.259 206.79C152.019 206.95 151.899 207.217 151.899 207.59C151.899 208.283 152.345 208.63 153.239 208.63H154.859L154.709 208.84ZM163.747 210.55V206.54H161.447L161.397 207.56C161.384 207.893 161.361 208.217 161.327 208.53C161.301 208.837 161.254 209.12 161.187 209.38C161.127 209.64 161.037 209.853 160.917 210.02C160.797 210.187 160.637 210.29 160.437 210.33L159.487 210.16C159.694 210.167 159.861 210.1 159.987 209.96C160.114 209.813 160.211 209.613 160.277 209.36C160.351 209.107 160.404 208.82 160.437 208.5C160.471 208.173 160.497 207.837 160.517 207.49L160.597 205.7H164.707V210.55H163.747ZM159.277 212.23V210.16H165.517V212.23H164.617V211H160.187V212.23H159.277ZM169.128 211.06C168.561 211.06 168.061 210.943 167.628 210.71C167.201 210.477 166.868 210.157 166.628 209.75C166.395 209.343 166.278 208.877 166.278 208.35C166.278 207.823 166.391 207.357 166.618 206.95C166.851 206.543 167.168 206.227 167.568 206C167.975 205.767 168.431 205.65 168.938 205.65C169.451 205.65 169.905 205.763 170.298 205.99C170.691 206.217 170.998 206.537 171.218 206.95C171.445 207.357 171.558 207.833 171.558 208.38C171.558 208.42 171.555 208.467 171.548 208.52C171.548 208.573 171.545 208.623 171.538 208.67H167.028V207.98H171.038L170.648 208.22C170.655 207.88 170.585 207.577 170.438 207.31C170.291 207.043 170.088 206.837 169.828 206.69C169.575 206.537 169.278 206.46 168.938 206.46C168.605 206.46 168.308 206.537 168.048 206.69C167.788 206.837 167.585 207.047 167.438 207.32C167.291 207.587 167.218 207.893 167.218 208.24V208.4C167.218 208.753 167.298 209.07 167.458 209.35C167.625 209.623 167.855 209.837 168.148 209.99C168.441 210.143 168.778 210.22 169.158 210.22C169.471 210.22 169.755 210.167 170.008 210.06C170.268 209.953 170.495 209.793 170.688 209.58L171.218 210.2C170.978 210.48 170.678 210.693 170.318 210.84C169.965 210.987 169.568 211.06 169.128 211.06ZM172.079 210.99L172.139 210.18C172.186 210.187 172.229 210.193 172.269 210.2C172.309 210.207 172.346 210.21 172.379 210.21C172.593 210.21 172.759 210.137 172.879 209.99C173.006 209.843 173.099 209.65 173.159 209.41C173.219 209.163 173.263 208.887 173.289 208.58C173.316 208.273 173.336 207.967 173.349 207.66L173.439 205.7H177.509V211H176.549V206.26L176.779 206.54H174.059L174.279 206.25L174.209 207.72C174.189 208.187 174.153 208.623 174.099 209.03C174.046 209.437 173.963 209.793 173.849 210.1C173.743 210.407 173.593 210.647 173.399 210.82C173.213 210.993 172.969 211.08 172.669 211.08C172.583 211.08 172.489 211.07 172.389 211.05C172.296 211.037 172.193 211.017 172.079 210.99ZM182.616 211V209.88L182.566 209.67V207.76C182.566 207.353 182.446 207.04 182.206 206.82C181.972 206.593 181.619 206.48 181.146 206.48C180.832 206.48 180.526 206.533 180.226 206.64C179.926 206.74 179.672 206.877 179.466 207.05L179.066 206.33C179.339 206.11 179.666 205.943 180.046 205.83C180.432 205.71 180.836 205.65 181.256 205.65C181.982 205.65 182.542 205.827 182.936 206.18C183.329 206.533 183.526 207.073 183.526 207.8V211H182.616ZM180.876 211.06C180.482 211.06 180.136 210.993 179.836 210.86C179.542 210.727 179.316 210.543 179.156 210.31C178.996 210.07 178.916 209.8 178.916 209.5C178.916 209.213 178.982 208.953 179.116 208.72C179.256 208.487 179.479 208.3 179.786 208.16C180.099 208.02 180.519 207.95 181.046 207.95H182.726V208.64H181.086C180.606 208.64 180.282 208.72 180.116 208.88C179.949 209.04 179.866 209.233 179.866 209.46C179.866 209.72 179.969 209.93 180.176 210.09C180.382 210.243 180.669 210.32 181.036 210.32C181.396 210.32 181.709 210.24 181.976 210.08C182.249 209.92 182.446 209.687 182.566 209.38L182.756 210.04C182.629 210.353 182.406 210.603 182.086 210.79C181.766 210.97 181.362 211.06 180.876 211.06ZM184.414 211L186.694 208.04L186.684 208.53L184.514 205.7H185.584L187.244 207.88H186.834L188.494 205.7H189.544L187.344 208.55L187.354 208.04L189.654 211H188.564L186.814 208.68L187.204 208.74L185.484 211H184.414ZM190.874 211.06C190.688 211.06 190.528 210.997 190.394 210.87C190.261 210.737 190.194 210.57 190.194 210.37C190.194 210.17 190.261 210.007 190.394 209.88C190.528 209.753 190.688 209.69 190.874 209.69C191.054 209.69 191.208 209.753 191.334 209.88C191.468 210.007 191.534 210.17 191.534 210.37C191.534 210.57 191.468 210.737 191.334 210.87C191.208 210.997 191.054 211.06 190.874 211.06Z" fill="black"/>
<rect x="65" y="279" width="92" height="28" rx="10" fill="black"/>
<path d="M84.2849 295V290.8H86.0909C86.5469 290.8 86.9049 290.892 87.1649 291.076C87.4249 291.26 87.5549 291.528 87.5549 291.88C87.5549 292.224 87.4309 292.488 87.1829 292.672C86.9349 292.852 86.6089 292.942 86.2049 292.942L86.3129 292.762C86.7809 292.762 87.1389 292.856 87.3869 293.044C87.6389 293.228 87.7649 293.498 87.7649 293.854C87.7649 294.214 87.6329 294.496 87.3689 294.7C87.1089 294.9 86.7209 295 86.2049 295H84.2849ZM84.8789 294.526H86.1929C86.5129 294.526 86.7529 294.468 86.9129 294.352C87.0769 294.232 87.1589 294.05 87.1589 293.806C87.1589 293.562 87.0769 293.384 86.9129 293.272C86.7529 293.16 86.5129 293.104 86.1929 293.104H84.8789V294.526ZM84.8789 292.648H86.0489C86.3409 292.648 86.5629 292.59 86.7149 292.474C86.8709 292.358 86.9489 292.188 86.9489 291.964C86.9489 291.736 86.8709 291.564 86.7149 291.448C86.5629 291.332 86.3409 291.274 86.0489 291.274H84.8789V292.648ZM88.6713 295V291.82H91.6173V295H91.0413V292.18L91.1793 292.324H89.1093L89.2473 292.18V295H88.6713ZM94.1478 295.036C93.8078 295.036 93.5078 294.966 93.2478 294.826C92.9918 294.686 92.7918 294.494 92.6478 294.25C92.5078 294.006 92.4378 293.726 92.4378 293.41C92.4378 293.094 92.5058 292.814 92.6418 292.57C92.7818 292.326 92.9718 292.136 93.2118 292C93.4558 291.86 93.7298 291.79 94.0338 291.79C94.3418 291.79 94.6138 291.858 94.8498 291.994C95.0858 292.13 95.2698 292.322 95.4018 292.57C95.5378 292.814 95.6058 293.1 95.6058 293.428C95.6058 293.452 95.6038 293.48 95.5998 293.512C95.5998 293.544 95.5978 293.574 95.5938 293.602H92.8878V293.188H95.2938L95.0598 293.332C95.0638 293.128 95.0218 292.946 94.9338 292.786C94.8458 292.626 94.7238 292.502 94.5678 292.414C94.4158 292.322 94.2378 292.276 94.0338 292.276C93.8338 292.276 93.6558 292.322 93.4998 292.414C93.3438 292.502 93.2218 292.628 93.1338 292.792C93.0458 292.952 93.0018 293.136 93.0018 293.344V293.44C93.0018 293.652 93.0498 293.842 93.1458 294.01C93.2458 294.174 93.3838 294.302 93.5598 294.394C93.7358 294.486 93.9378 294.532 94.1658 294.532C94.3538 294.532 94.5238 294.5 94.6758 294.436C94.8318 294.372 94.9678 294.276 95.0838 294.148L95.4018 294.52C95.2578 294.688 95.0778 294.816 94.8618 294.904C94.6498 294.992 94.4118 295.036 94.1478 295.036ZM98.1854 295.036C97.9214 295.036 97.6794 294.976 97.4594 294.856C97.2434 294.732 97.0694 294.55 96.9374 294.31C96.8094 294.07 96.7454 293.77 96.7454 293.41C96.7454 293.05 96.8074 292.75 96.9314 292.51C97.0594 292.27 97.2314 292.09 97.4474 291.97C97.6674 291.85 97.9134 291.79 98.1854 291.79C98.4974 291.79 98.7734 291.858 99.0134 291.994C99.2534 292.13 99.4434 292.32 99.5834 292.564C99.7234 292.804 99.7934 293.086 99.7934 293.41C99.7934 293.734 99.7234 294.018 99.5834 294.262C99.4434 294.506 99.2534 294.696 99.0134 294.832C98.7734 294.968 98.4974 295.036 98.1854 295.036ZM96.4994 296.164V291.82H97.0514V292.678L97.0154 293.416L97.0754 294.154V296.164H96.4994ZM98.1374 294.532C98.3414 294.532 98.5234 294.486 98.6834 294.394C98.8474 294.302 98.9754 294.172 99.0674 294.004C99.1634 293.832 99.2114 293.634 99.2114 293.41C99.2114 293.182 99.1634 292.986 99.0674 292.822C98.9754 292.654 98.8474 292.524 98.6834 292.432C98.5234 292.34 98.3414 292.294 98.1374 292.294C97.9374 292.294 97.7554 292.34 97.5914 292.432C97.4314 292.524 97.3034 292.654 97.2074 292.822C97.1154 292.986 97.0694 293.182 97.0694 293.41C97.0694 293.634 97.1154 293.832 97.2074 294.004C97.3034 294.172 97.4314 294.302 97.5914 294.394C97.7554 294.486 97.9374 294.532 98.1374 294.532ZM102.046 295.036C101.706 295.036 101.406 294.966 101.146 294.826C100.89 294.686 100.69 294.494 100.546 294.25C100.406 294.006 100.336 293.726 100.336 293.41C100.336 293.094 100.404 292.814 100.54 292.57C100.68 292.326 100.87 292.136 101.11 292C101.354 291.86 101.628 291.79 101.932 291.79C102.24 291.79 102.512 291.858 102.748 291.994C102.984 292.13 103.168 292.322 103.3 292.57C103.436 292.814 103.504 293.1 103.504 293.428C103.504 293.452 103.502 293.48 103.498 293.512C103.498 293.544 103.496 293.574 103.492 293.602H100.786V293.188H103.192L102.958 293.332C102.962 293.128 102.92 292.946 102.832 292.786C102.744 292.626 102.622 292.502 102.466 292.414C102.314 292.322 102.136 292.276 101.932 292.276C101.732 292.276 101.554 292.322 101.398 292.414C101.242 292.502 101.12 292.628 101.032 292.792C100.944 292.952 100.9 293.136 100.9 293.344V293.44C100.9 293.652 100.948 293.842 101.044 294.01C101.144 294.174 101.282 294.302 101.458 294.394C101.634 294.486 101.836 294.532 102.064 294.532C102.252 294.532 102.422 294.5 102.574 294.436C102.73 294.372 102.866 294.276 102.982 294.148L103.3 294.52C103.156 294.688 102.976 294.816 102.76 294.904C102.548 294.992 102.31 295.036 102.046 295.036ZM106.517 294.73V292.324H105.137L105.107 292.936C105.099 293.136 105.085 293.33 105.065 293.518C105.049 293.702 105.021 293.872 104.981 294.028C104.945 294.184 104.891 294.312 104.819 294.412C104.747 294.512 104.651 294.574 104.531 294.598L103.961 294.496C104.085 294.5 104.185 294.46 104.261 294.376C104.337 294.288 104.395 294.168 104.435 294.016C104.479 293.864 104.511 293.692 104.531 293.5C104.551 293.304 104.567 293.102 104.579 292.894L104.627 291.82H107.093V294.73H106.517ZM103.835 295.738V294.496H107.579V295.738H107.039V295H104.381V295.738H103.835ZM112.245 295L111.015 293.452L111.489 293.164L112.923 295H112.245ZM109.941 295V291.82H110.517V295H109.941ZM110.343 293.656V293.164H111.393V293.656H110.343ZM111.537 293.476L111.003 293.404L112.221 291.82H112.839L111.537 293.476ZM115.138 295V291.82H118.084V295H117.508V292.18L117.646 292.324H115.576L115.714 292.18V295H115.138ZM120.561 295.036C120.241 295.036 119.957 294.966 119.709 294.826C119.461 294.686 119.265 294.494 119.121 294.25C118.977 294.002 118.905 293.722 118.905 293.41C118.905 293.094 118.977 292.814 119.121 292.57C119.265 292.326 119.461 292.136 119.709 292C119.957 291.86 120.241 291.79 120.561 291.79C120.877 291.79 121.159 291.86 121.407 292C121.659 292.136 121.855 292.326 121.995 292.57C122.139 292.81 122.211 293.09 122.211 293.41C122.211 293.726 122.139 294.006 121.995 294.25C121.855 294.494 121.659 294.686 121.407 294.826C121.159 294.966 120.877 295.036 120.561 295.036ZM120.561 294.532C120.765 294.532 120.947 294.486 121.107 294.394C121.271 294.302 121.399 294.172 121.491 294.004C121.583 293.832 121.629 293.634 121.629 293.41C121.629 293.182 121.583 292.986 121.491 292.822C121.399 292.654 121.271 292.524 121.107 292.432C120.947 292.34 120.765 292.294 120.561 292.294C120.357 292.294 120.175 292.34 120.015 292.432C119.855 292.524 119.727 292.654 119.631 292.822C119.535 292.986 119.487 293.182 119.487 293.41C119.487 293.634 119.535 293.832 119.631 294.004C119.727 294.172 119.855 294.302 120.015 294.394C120.175 294.486 120.357 294.532 120.561 294.532ZM124.728 295.036C124.464 295.036 124.222 294.976 124.002 294.856C123.786 294.732 123.612 294.55 123.48 294.31C123.352 294.07 123.288 293.77 123.288 293.41C123.288 293.05 123.35 292.75 123.474 292.51C123.602 292.27 123.774 292.09 123.99 291.97C124.21 291.85 124.456 291.79 124.728 291.79C125.04 291.79 125.316 291.858 125.556 291.994C125.796 292.13 125.986 292.32 126.126 292.564C126.266 292.804 126.336 293.086 126.336 293.41C126.336 293.734 126.266 294.018 126.126 294.262C125.986 294.506 125.796 294.696 125.556 294.832C125.316 294.968 125.04 295.036 124.728 295.036ZM123.042 296.164V291.82H123.594V292.678L123.558 293.416L123.618 294.154V296.164H123.042ZM124.68 294.532C124.884 294.532 125.066 294.486 125.226 294.394C125.39 294.302 125.518 294.172 125.61 294.004C125.706 293.832 125.754 293.634 125.754 293.41C125.754 293.182 125.706 292.986 125.61 292.822C125.518 292.654 125.39 292.524 125.226 292.432C125.066 292.34 124.884 292.294 124.68 292.294C124.48 292.294 124.298 292.34 124.134 292.432C123.974 292.524 123.846 292.654 123.75 292.822C123.658 292.986 123.612 293.182 123.612 293.41C123.612 293.634 123.658 293.832 123.75 294.004C123.846 294.172 123.974 294.302 124.134 294.394C124.298 294.486 124.48 294.532 124.68 294.532ZM129.102 295V293.884L129.192 293.992H128.178C127.754 293.992 127.422 293.902 127.182 293.722C126.946 293.542 126.828 293.28 126.828 292.936C126.828 292.568 126.954 292.29 127.206 292.102C127.462 291.914 127.802 291.82 128.226 291.82H129.618V295H129.102ZM126.798 295L127.662 293.782H128.256L127.416 295H126.798ZM129.102 293.704V292.162L129.192 292.324H128.244C127.98 292.324 127.776 292.374 127.632 292.474C127.488 292.57 127.416 292.73 127.416 292.954C127.416 293.37 127.684 293.578 128.22 293.578H129.192L129.102 293.704ZM132.914 294.73V292.324H131.534L131.504 292.936C131.496 293.136 131.482 293.33 131.462 293.518C131.446 293.702 131.418 293.872 131.378 294.028C131.342 294.184 131.288 294.312 131.216 294.412C131.144 294.512 131.048 294.574 130.928 294.598L130.358 294.496C130.482 294.5 130.582 294.46 130.658 294.376C130.734 294.288 130.792 294.168 130.832 294.016C130.876 293.864 130.908 293.692 130.928 293.5C130.948 293.304 130.964 293.102 130.976 292.894L131.024 291.82H133.49V294.73H132.914ZM130.232 295.738V294.496H133.976V295.738H133.436V295H130.778V295.738H130.232ZM137.03 295L135.8 293.452L136.274 293.164L137.708 295H137.03ZM134.726 295V291.82H135.302V295H134.726ZM135.128 293.656V293.164H136.178V293.656H135.128ZM136.322 293.476L135.788 293.404L137.006 291.82H137.624L136.322 293.476ZM138.292 296.2C138.14 296.2 137.992 296.174 137.848 296.122C137.704 296.074 137.58 296.002 137.476 295.906L137.722 295.474C137.802 295.55 137.89 295.608 137.986 295.648C138.082 295.688 138.184 295.708 138.292 295.708C138.432 295.708 138.548 295.672 138.64 295.6C138.732 295.528 138.818 295.4 138.898 295.216L139.096 294.778L139.156 294.706L140.404 291.82H140.968L139.426 295.318C139.334 295.542 139.23 295.718 139.114 295.846C139.002 295.974 138.878 296.064 138.742 296.116C138.606 296.172 138.456 296.2 138.292 296.2ZM139.048 295.102L137.596 291.82H138.196L139.432 294.652L139.048 295.102Z" fill="white"/>
</svg>
