<svg width="183" height="111" viewBox="0 0 183 111" fill="none" xmlns="http://www.w3.org/2000/svg">
<path d="M163.469 59.4525C163.469 67.2711 156.935 73.7043 148.756 73.7043C140.577 73.7043 134.043 67.2711 134.043 59.4525C134.043 51.6339 140.577 45.2008 148.756 45.2008C156.935 45.2008 163.469 51.6339 163.469 59.4525Z" fill="black" stroke="white" stroke-width="4"/>
<path d="M171.395 81.7067C169.732 82.6262 175.895 76.5722 171.395 68.0795C166.895 59.5868 164.595 51.9567 166.257 51.0372C167.92 50.1177 172.916 56.257 177.416 64.7498C181.916 73.2425 173.058 80.7872 171.395 81.7067Z" fill="#D9D9D9"/>
<path d="M143.583 106.936C141.202 107.37 133.542 101.087 131.879 91.5799C130.215 82.0733 135.179 72.944 137.56 72.5092C139.941 72.0743 135.01 81.8867 136.673 91.3934C138.336 100.9 145.964 106.501 143.583 106.936Z" fill="#D9D9D9"/>
<path d="M160.9 109.404C158.519 109.839 150.859 103.555 149.196 94.0486C147.533 84.5419 152.496 75.4126 154.877 74.9778C157.258 74.543 152.327 84.3554 153.99 93.862C155.653 103.369 163.281 108.969 160.9 109.404Z" fill="#D9D9D9"/>
<path d="M130.605 51.7149C129.002 52.7394 123.638 46.9335 118.624 38.747C113.609 30.5605 120.791 18.4421 122.393 17.4175C123.996 16.3929 119.413 26.8502 124.427 35.0367C129.442 43.2232 132.207 50.6903 130.605 51.7149Z" fill="#D9D9D9"/>
<ellipse cx="12.9667" cy="10.6767" rx="12.9667" ry="10.6767" transform="matrix(0.950921 -0.309433 0.29764 0.954678 137.681 24.6475)" fill="#D9D9D9"/>
<rect width="19.8947" height="10.1775" rx="2" transform="matrix(0.784037 -0.620715 0.604336 0.796729 110.296 13.1719)" fill="#D9D9D9"/>
<rect width="13.0173" height="9.1013" rx="2" transform="matrix(0.784037 -0.620715 0.604336 0.796729 110.699 10.5486)" fill="#F3EDED"/>
<mask id="path-9-inside-1_45_63" fill="white">
<ellipse cx="125.801" cy="2.05718" rx="2.21499" ry="2.05718"/>
</mask>
<ellipse cx="125.801" cy="2.05718" rx="2.21499" ry="2.05718" fill="white"/>
<path d="M125.016 2.05718C125.016 1.72184 125.168 1.46005 125.326 1.31365C125.479 1.17075 125.655 1.11436 125.801 1.11436V7.11436C128.468 7.11436 131.016 5.05514 131.016 2.05718H125.016ZM125.801 1.11436C125.947 1.11436 126.122 1.17075 126.276 1.31365C126.434 1.46005 126.586 1.72184 126.586 2.05718H120.586C120.586 5.05514 123.133 7.11436 125.801 7.11436V1.11436ZM126.586 2.05718C126.586 2.39252 126.434 2.65431 126.276 2.80071C126.122 2.94361 125.947 3 125.801 3V-3C123.133 -3 120.586 -0.94078 120.586 2.05718H126.586ZM125.801 3C125.655 3 125.479 2.94361 125.326 2.80071C125.168 2.65431 125.016 2.39252 125.016 2.05718H131.016C131.016 -0.94078 128.468 -3 125.801 -3V3Z" fill="black" mask="url(#path-9-inside-1_45_63)"/>
<mask id="path-11-inside-2_45_63" fill="white">
<ellipse cx="128.217" cy="4.52581" rx="2.21499" ry="2.05718"/>
</mask>
<ellipse cx="128.217" cy="4.52581" rx="2.21499" ry="2.05718" fill="white"/>
<path d="M127.432 4.52581C127.432 4.19047 127.584 3.92868 127.742 3.78227C127.896 3.63938 128.071 3.58299 128.217 3.58299V9.58299C130.885 9.58299 133.432 7.52377 133.432 4.52581H127.432ZM128.217 3.58299C128.363 3.58299 128.539 3.63938 128.693 3.78227C128.85 3.92868 129.002 4.19047 129.002 4.52581H123.002C123.002 7.52377 125.55 9.58299 128.217 9.58299V3.58299ZM129.002 4.52581C129.002 4.86114 128.85 5.12294 128.693 5.26934C128.539 5.41224 128.363 5.46863 128.217 5.46863V-0.531372C125.55 -0.531372 123.002 1.52785 123.002 4.52581H129.002ZM128.217 5.46863C128.071 5.46863 127.896 5.41224 127.742 5.26934C127.584 5.12294 127.432 4.86114 127.432 4.52581H133.432C133.432 1.52785 130.885 -0.531372 128.217 -0.531372V5.46863Z" fill="black" mask="url(#path-11-inside-2_45_63)"/>
<mask id="path-13-inside-3_45_63" fill="white">
<ellipse cx="130.231" cy="6.58294" rx="2.21499" ry="2.05718"/>
</mask>
<ellipse cx="130.231" cy="6.58294" rx="2.21499" ry="2.05718" fill="white"/>
<path d="M129.446 6.58294C129.446 6.2476 129.598 5.98581 129.755 5.8394C129.909 5.69651 130.085 5.64012 130.231 5.64012V11.6401C132.898 11.6401 135.446 9.5809 135.446 6.58294H129.446ZM130.231 5.64012C130.377 5.64012 130.552 5.69651 130.706 5.8394C130.864 5.98581 131.016 6.2476 131.016 6.58294H125.016C125.016 9.5809 127.563 11.6401 130.231 11.6401V5.64012ZM131.016 6.58294C131.016 6.91827 130.864 7.18007 130.706 7.32647C130.552 7.46937 130.377 7.52576 130.231 7.52576V1.52576C127.563 1.52576 125.016 3.58498 125.016 6.58294H131.016ZM130.231 7.52576C130.085 7.52576 129.909 7.46937 129.755 7.32647C129.598 7.18007 129.446 6.91827 129.446 6.58294H135.446C135.446 3.58498 132.898 1.52576 130.231 1.52576V7.52576Z" fill="black" mask="url(#path-13-inside-3_45_63)"/>
<path d="M10.7936 43.972C12.6896 43.972 14.3096 44.296 15.6536 44.944C16.9976 45.568 18.0296 46.48 18.7496 47.68C19.4936 48.88 19.8656 50.332 19.8656 52.036C19.8656 53.068 19.7096 54.088 19.3976 55.096C19.0856 56.08 18.5816 56.98 17.8856 57.796C17.2136 58.588 16.3256 59.224 15.2216 59.704C14.1176 60.184 12.7736 60.424 11.1896 60.424H7.33756V70H3.84556V43.972H10.7936ZM11.1536 57.076C12.1856 57.076 13.0376 56.908 13.7096 56.572C14.3816 56.236 14.9096 55.816 15.2936 55.312C15.6776 54.784 15.9536 54.232 16.1216 53.656C16.2896 53.08 16.3736 52.564 16.3736 52.108C16.3736 51.58 16.2896 51.04 16.1216 50.488C15.9536 49.912 15.6656 49.396 15.2576 48.94C14.8736 48.46 14.3576 48.076 13.7096 47.788C13.0856 47.476 12.3056 47.32 11.3696 47.32H7.33756V57.076H11.1536ZM31.3397 70.36C29.6357 70.36 28.1717 70.024 26.9477 69.352C25.7237 68.656 24.7757 67.72 24.1037 66.544C23.4557 65.344 23.1317 63.976 23.1317 62.44C23.1317 60.976 23.5037 59.644 24.2477 58.444C24.9917 57.244 25.9877 56.284 27.2357 55.564C28.4837 54.844 29.8757 54.484 31.4117 54.484C33.3797 54.484 35.0117 55.06 36.3077 56.212C37.6037 57.364 38.4797 58.948 38.9357 60.964L26.6597 65.284L25.8677 63.304L35.9477 59.632L35.2277 60.1C34.9397 59.308 34.4597 58.624 33.7877 58.048C33.1157 57.448 32.2397 57.148 31.1597 57.148C30.2477 57.148 29.4317 57.376 28.7117 57.832C27.9917 58.264 27.4277 58.864 27.0197 59.632C26.6117 60.4 26.4077 61.276 26.4077 62.26C26.4077 63.292 26.6237 64.204 27.0557 64.996C27.4877 65.764 28.0757 66.376 28.8197 66.832C29.5877 67.264 30.4517 67.48 31.4117 67.48C32.0597 67.48 32.6837 67.36 33.2837 67.12C33.9077 66.88 34.4837 66.568 35.0117 66.184L36.5597 68.668C35.8157 69.172 34.9757 69.58 34.0397 69.892C33.1277 70.204 32.2277 70.36 31.3397 70.36ZM51.9148 70.36C50.7868 70.36 49.6948 70.096 48.6388 69.568C47.6068 69.04 46.8028 68.332 46.2268 67.444L46.4428 66.4V77.164H43.1308V54.88H46.0108L46.4788 58.696L46.1188 57.652C46.8388 56.74 47.7508 55.984 48.8548 55.384C49.9588 54.784 51.1948 54.484 52.5628 54.484C53.9548 54.484 55.2028 54.82 56.3068 55.492C57.4348 56.164 58.3228 57.1 58.9708 58.3C59.6188 59.5 59.9428 60.904 59.9428 62.512C59.9428 64.12 59.5948 65.512 58.8988 66.688C58.2028 67.864 57.2428 68.776 56.0188 69.424C54.8188 70.048 53.4508 70.36 51.9148 70.36ZM51.2668 67.696C52.2268 67.696 53.1028 67.48 53.8948 67.048C54.7108 66.592 55.3588 65.98 55.8388 65.212C56.3188 64.42 56.5588 63.532 56.5588 62.548C56.5588 61.54 56.3308 60.652 55.8748 59.884C55.4188 59.092 54.8068 58.468 54.0388 58.012C53.2948 57.556 52.4548 57.328 51.5188 57.328C50.6548 57.328 49.8748 57.496 49.1788 57.832C48.4828 58.168 47.9068 58.636 47.4508 59.236C46.9948 59.812 46.6708 60.484 46.4788 61.252V63.736C46.5988 64.504 46.8868 65.188 47.3428 65.788C47.7988 66.388 48.3628 66.856 49.0348 67.192C49.7308 67.528 50.4748 67.696 51.2668 67.696ZM73.2547 70.36C72.1267 70.36 71.0347 70.096 69.9787 69.568C68.9467 69.04 68.1427 68.332 67.5667 67.444L67.7827 66.4V77.164H64.4707V54.88H67.3507L67.8187 58.696L67.4587 57.652C68.1787 56.74 69.0907 55.984 70.1947 55.384C71.2987 54.784 72.5347 54.484 73.9027 54.484C75.2947 54.484 76.5427 54.82 77.6467 55.492C78.7747 56.164 79.6627 57.1 80.3107 58.3C80.9587 59.5 81.2827 60.904 81.2827 62.512C81.2827 64.12 80.9347 65.512 80.2387 66.688C79.5427 67.864 78.5827 68.776 77.3587 69.424C76.1587 70.048 74.7907 70.36 73.2547 70.36ZM72.6067 67.696C73.5667 67.696 74.4427 67.48 75.2347 67.048C76.0507 66.592 76.6987 65.98 77.1787 65.212C77.6587 64.42 77.8987 63.532 77.8987 62.548C77.8987 61.54 77.6707 60.652 77.2147 59.884C76.7587 59.092 76.1467 58.468 75.3787 58.012C74.6347 57.556 73.7947 57.328 72.8587 57.328C71.9947 57.328 71.2147 57.496 70.5187 57.832C69.8227 58.168 69.2467 58.636 68.7907 59.236C68.3347 59.812 68.0107 60.484 67.8187 61.252V63.736C67.9387 64.504 68.2267 65.188 68.6827 65.788C69.1387 66.388 69.7027 66.856 70.3747 67.192C71.0707 67.528 71.8147 67.696 72.6067 67.696ZM84.5145 62.404C84.5145 60.916 84.8625 59.572 85.5585 58.372C86.2785 57.172 87.2625 56.224 88.5105 55.528C89.7585 54.832 91.1745 54.484 92.7585 54.484C94.3905 54.484 95.8185 54.832 97.0425 55.528C98.2665 56.224 99.2145 57.172 99.8865 58.372C100.559 59.572 100.895 60.916 100.895 62.404C100.895 63.892 100.559 65.248 99.8865 66.472C99.2145 67.672 98.2545 68.62 97.0065 69.316C95.7825 70.012 94.3545 70.36 92.7225 70.36C91.1385 70.36 89.7225 70.036 88.4745 69.388C87.2505 68.716 86.2785 67.792 85.5585 66.616C84.8625 65.416 84.5145 64.012 84.5145 62.404ZM87.8625 62.44C87.8625 63.4 88.0785 64.276 88.5105 65.068C88.9425 65.836 89.5185 66.448 90.2385 66.904C90.9825 67.36 91.7985 67.588 92.6865 67.588C93.6225 67.588 94.4505 67.36 95.1705 66.904C95.9145 66.448 96.4905 65.836 96.8985 65.068C97.3065 64.276 97.5105 63.4 97.5105 62.44C97.5105 61.48 97.3065 60.616 96.8985 59.848C96.4905 59.056 95.9145 58.432 95.1705 57.976C94.4505 57.496 93.6225 57.256 92.6865 57.256C91.7745 57.256 90.9465 57.496 90.2025 57.976C89.4825 58.456 88.9065 59.092 88.4745 59.884C88.0665 60.652 87.8625 61.504 87.8625 62.44ZM103.736 68.092C103.736 67.564 103.928 67.12 104.312 66.76C104.72 66.376 105.164 66.184 105.644 66.184C106.076 66.184 106.484 66.376 106.868 66.76C107.276 67.12 107.48 67.564 107.48 68.092C107.48 68.668 107.276 69.136 106.868 69.496C106.484 69.832 106.076 70 105.644 70C105.164 70 104.72 69.832 104.312 69.496C103.928 69.136 103.736 68.668 103.736 68.092ZM117.523 70.36C116.155 70.36 114.907 70.036 113.779 69.388C112.675 68.716 111.799 67.78 111.151 66.58C110.503 65.356 110.179 63.952 110.179 62.368C110.179 60.712 110.515 59.296 111.187 58.12C111.883 56.944 112.819 56.044 113.995 55.42C115.171 54.796 116.491 54.484 117.955 54.484C119.131 54.484 120.247 54.736 121.303 55.24C122.383 55.744 123.223 56.44 123.823 57.328L123.679 58.516V42.136H126.991V70H123.643V66.292L124.003 67.228C123.307 68.14 122.407 68.896 121.303 69.496C120.199 70.072 118.939 70.36 117.523 70.36ZM118.567 67.516C119.455 67.516 120.247 67.36 120.943 67.048C121.639 66.712 122.215 66.256 122.671 65.68C123.127 65.104 123.451 64.42 123.643 63.628V60.82C123.451 60.1 123.103 59.476 122.599 58.948C122.119 58.396 121.531 57.964 120.835 57.652C120.163 57.316 119.407 57.148 118.567 57.148C117.655 57.148 116.815 57.376 116.047 57.832C115.303 58.264 114.703 58.864 114.247 59.632C113.791 60.4 113.563 61.288 113.563 62.296C113.563 63.28 113.791 64.168 114.247 64.96C114.703 65.728 115.315 66.352 116.083 66.832C116.851 67.288 117.679 67.516 118.567 67.516Z" fill="white"/>
</svg>
