<svg width="101" height="60" viewBox="0 0 101 60" fill="none" xmlns="http://www.w3.org/2000/svg">
<path d="M89.6495 31.6958C89.6495 35.9678 86.1215 39.4602 81.733 39.4602C77.3445 39.4602 73.8164 35.9678 73.8164 31.6958C73.8164 27.4238 77.3445 23.9314 81.733 23.9314C86.1215 23.9314 89.6495 27.4238 89.6495 31.6958Z" fill="white" stroke="black" stroke-width="2"/>
<path d="M94.3101 44.2599C93.4152 44.752 96.7322 41.5121 94.3101 36.9671C91.888 32.4221 90.6499 28.3388 91.5447 27.8467C92.4396 27.3546 95.1286 30.6402 97.5507 35.1852C99.9728 39.7302 95.205 43.7678 94.3101 44.2599Z" fill="#D9D9D9"/>
<path d="M79.3403 57.7615C78.0586 57.9942 73.9357 54.6313 73.0405 49.5437C72.1453 44.4561 74.8168 39.5704 76.0985 39.3377C77.3802 39.105 74.7258 44.3563 75.621 49.4438C76.5162 54.5314 80.622 57.5288 79.3403 57.7615Z" fill="#D9D9D9"/>
<path d="M88.6626 59.0826C87.3809 59.3153 83.258 55.9524 82.3628 50.8648C81.4676 45.7772 84.1391 40.8915 85.4208 40.6588C86.7025 40.4261 84.0481 45.6774 84.9433 50.765C85.8385 55.8526 89.9443 58.8499 88.6626 59.0826Z" fill="#D9D9D9"/>
<path d="M72.357 28.2094C71.4944 28.7577 68.6071 25.6506 65.9082 21.2694C63.2092 16.8883 67.0746 10.403 67.9372 9.85469C68.7998 9.30638 66.333 14.9027 69.032 19.2838C71.7309 23.665 73.2196 27.6611 72.357 28.2094Z" fill="#D9D9D9"/>
<ellipse cx="6.97539" cy="5.71669" rx="6.97539" ry="5.71669" transform="matrix(0.951441 -0.307832 0.299198 0.954191 76.166 13.7239)" fill="#D9D9D9"/>
<rect width="10.6846" height="5.4581" rx="2" transform="matrix(0.785764 -0.618526 0.606535 0.795057 61.4258 7.58253)" fill="#D9D9D9"/>
<rect width="6.99102" height="4.88093" rx="2" transform="matrix(0.785764 -0.618526 0.606535 0.795057 61.6406 6.1787)" fill="#F3EDED"/>
<ellipse cx="69.3511" cy="0.973822" rx="0.990729" ry="0.973822" fill="white"/>
<ellipse cx="70.8377" cy="2.43456" rx="1.48609" ry="1.46073" fill="white"/>
<ellipse cx="71.8279" cy="3.40838" rx="1.48609" ry="1.46073" fill="white"/>
<path d="M6.04691 23.3766C7.10024 23.3766 8.00024 23.5566 8.74691 23.9166C9.49357 24.2632 10.0669 24.7699 10.4669 25.4366C10.8802 26.1032 11.0869 26.9099 11.0869 27.8566C11.0869 28.4299 11.0002 28.9966 10.8269 29.5566C10.6536 30.1032 10.3736 30.6032 9.98691 31.0566C9.61357 31.4966 9.12024 31.8499 8.50691 32.1166C7.89357 32.3832 7.14691 32.5166 6.26691 32.5166H4.12691V37.8366H2.18691V23.3766H6.04691ZM6.24691 30.6566C6.82024 30.6566 7.29357 30.5632 7.66691 30.3766C8.04024 30.1899 8.33357 29.9566 8.54691 29.6766C8.76024 29.3832 8.91357 29.0766 9.00691 28.7566C9.10024 28.4366 9.14691 28.1499 9.14691 27.8966C9.14691 27.6032 9.10024 27.3032 9.00691 26.9966C8.91357 26.6766 8.75357 26.3899 8.52691 26.1366C8.31357 25.8699 8.02691 25.6566 7.66691 25.4966C7.32024 25.3232 6.88691 25.2366 6.36691 25.2366H4.12691V30.6566H6.24691ZM17.4614 38.0366C16.5148 38.0366 15.7014 37.8499 15.0214 37.4766C14.3414 37.0899 13.8148 36.5699 13.4414 35.9166C13.0814 35.2499 12.9014 34.4899 12.9014 33.6366C12.9014 32.8232 13.1081 32.0832 13.5214 31.4166C13.9348 30.7499 14.4881 30.2166 15.1814 29.8166C15.8748 29.4166 16.6481 29.2166 17.5014 29.2166C18.5948 29.2166 19.5014 29.5366 20.2214 30.1766C20.9414 30.8166 21.4281 31.6966 21.6814 32.8166L14.8614 35.2166L14.4214 34.1166L20.0214 32.0766L19.6214 32.3366C19.4614 31.8966 19.1948 31.5166 18.8214 31.1966C18.4481 30.8632 17.9614 30.6966 17.3614 30.6966C16.8548 30.6966 16.4014 30.8232 16.0014 31.0766C15.6014 31.3166 15.2881 31.6499 15.0614 32.0766C14.8348 32.5032 14.7214 32.9899 14.7214 33.5366C14.7214 34.1099 14.8414 34.6166 15.0814 35.0566C15.3214 35.4832 15.6481 35.8232 16.0614 36.0766C16.4881 36.3166 16.9681 36.4366 17.5014 36.4366C17.8614 36.4366 18.2081 36.3699 18.5414 36.2366C18.8881 36.1032 19.2081 35.9299 19.5014 35.7166L20.3614 37.0966C19.9481 37.3766 19.4814 37.6032 18.9614 37.7766C18.4548 37.9499 17.9548 38.0366 17.4614 38.0366ZM28.8921 38.0366C28.2654 38.0366 27.6587 37.8899 27.0721 37.5966C26.4987 37.3032 26.0521 36.9099 25.7321 36.4166L25.8521 35.8366V41.8166H24.0121V29.4366H25.6121L25.8721 31.5566L25.6721 30.9766C26.0721 30.4699 26.5787 30.0499 27.1921 29.7166C27.8054 29.3832 28.4921 29.2166 29.2521 29.2166C30.0254 29.2166 30.7187 29.4032 31.3321 29.7766C31.9587 30.1499 32.4521 30.6699 32.8121 31.3366C33.1721 32.0032 33.3521 32.7832 33.3521 33.6766C33.3521 34.5699 33.1587 35.3432 32.7721 35.9966C32.3854 36.6499 31.8521 37.1566 31.1721 37.5166C30.5054 37.8632 29.7454 38.0366 28.8921 38.0366ZM28.5321 36.5566C29.0654 36.5566 29.5521 36.4366 29.9921 36.1966C30.4454 35.9432 30.8054 35.6032 31.0721 35.1766C31.3387 34.7366 31.4721 34.2432 31.4721 33.6966C31.4721 33.1366 31.3454 32.6432 31.0921 32.2166C30.8387 31.7766 30.4987 31.4299 30.0721 31.1766C29.6587 30.9232 29.1921 30.7966 28.6721 30.7966C28.1921 30.7966 27.7587 30.8899 27.3721 31.0766C26.9854 31.2632 26.6654 31.5232 26.4121 31.8566C26.1587 32.1766 25.9787 32.5499 25.8721 32.9766V34.3566C25.9387 34.7832 26.0987 35.1632 26.3521 35.4966C26.6054 35.8299 26.9187 36.0899 27.2921 36.2766C27.6787 36.4632 28.0921 36.5566 28.5321 36.5566ZM40.7475 38.0366C40.1209 38.0366 39.5142 37.8899 38.9275 37.5966C38.3542 37.3032 37.9075 36.9099 37.5875 36.4166L37.7075 35.8366V41.8166H35.8675V29.4366H37.4675L37.7275 31.5566L37.5275 30.9766C37.9275 30.4699 38.4342 30.0499 39.0475 29.7166C39.6609 29.3832 40.3475 29.2166 41.1075 29.2166C41.8809 29.2166 42.5742 29.4032 43.1875 29.7766C43.8142 30.1499 44.3075 30.6699 44.6675 31.3366C45.0275 32.0032 45.2075 32.7832 45.2075 33.6766C45.2075 34.5699 45.0142 35.3432 44.6275 35.9966C44.2409 36.6499 43.7075 37.1566 43.0275 37.5166C42.3609 37.8632 41.6009 38.0366 40.7475 38.0366ZM40.3875 36.5566C40.9209 36.5566 41.4075 36.4366 41.8475 36.1966C42.3009 35.9432 42.6609 35.6032 42.9275 35.1766C43.1942 34.7366 43.3275 34.2432 43.3275 33.6966C43.3275 33.1366 43.2009 32.6432 42.9475 32.2166C42.6942 31.7766 42.3542 31.4299 41.9275 31.1766C41.5142 30.9232 41.0475 30.7966 40.5275 30.7966C40.0475 30.7966 39.6142 30.8899 39.2275 31.0766C38.8409 31.2632 38.5209 31.5232 38.2675 31.8566C38.0142 32.1766 37.8342 32.5499 37.7275 32.9766V34.3566C37.7942 34.7832 37.9542 35.1632 38.2075 35.4966C38.4609 35.8299 38.7742 36.0899 39.1475 36.2766C39.5342 36.4632 39.9475 36.5566 40.3875 36.5566ZM47.003 33.6166C47.003 32.7899 47.1963 32.0432 47.583 31.3766C47.983 30.7099 48.5297 30.1832 49.223 29.7966C49.9163 29.4099 50.703 29.2166 51.583 29.2166C52.4897 29.2166 53.283 29.4099 53.963 29.7966C54.643 30.1832 55.1697 30.7099 55.543 31.3766C55.9163 32.0432 56.103 32.7899 56.103 33.6166C56.103 34.4432 55.9163 35.1966 55.543 35.8766C55.1697 36.5432 54.6363 37.0699 53.943 37.4566C53.263 37.8432 52.4697 38.0366 51.563 38.0366C50.683 38.0366 49.8963 37.8566 49.203 37.4966C48.523 37.1232 47.983 36.6099 47.583 35.9566C47.1963 35.2899 47.003 34.5099 47.003 33.6166ZM48.863 33.6366C48.863 34.1699 48.983 34.6566 49.223 35.0966C49.463 35.5232 49.783 35.8632 50.183 36.1166C50.5963 36.3699 51.0497 36.4966 51.543 36.4966C52.063 36.4966 52.523 36.3699 52.923 36.1166C53.3363 35.8632 53.6563 35.5232 53.883 35.0966C54.1097 34.6566 54.223 34.1699 54.223 33.6366C54.223 33.1032 54.1097 32.6232 53.883 32.1966C53.6563 31.7566 53.3363 31.4099 52.923 31.1566C52.523 30.8899 52.063 30.7566 51.543 30.7566C51.0363 30.7566 50.5763 30.8899 50.163 31.1566C49.763 31.4232 49.443 31.7766 49.203 32.2166C48.9763 32.6432 48.863 33.1166 48.863 33.6366ZM57.6814 36.7766C57.6814 36.4832 57.7881 36.2366 58.0014 36.0366C58.2281 35.8232 58.4748 35.7166 58.7414 35.7166C58.9814 35.7166 59.2081 35.8232 59.4214 36.0366C59.6481 36.2366 59.7614 36.4832 59.7614 36.7766C59.7614 37.0966 59.6481 37.3566 59.4214 37.5566C59.2081 37.7432 58.9814 37.8366 58.7414 37.8366C58.4748 37.8366 58.2281 37.7432 58.0014 37.5566C57.7881 37.3566 57.6814 37.0966 57.6814 36.7766ZM65.3408 38.0366C64.5808 38.0366 63.8875 37.8566 63.2608 37.4966C62.6475 37.1232 62.1608 36.6032 61.8008 35.9366C61.4408 35.2566 61.2608 34.4766 61.2608 33.5966C61.2608 32.6766 61.4475 31.8899 61.8208 31.2366C62.2075 30.5832 62.7275 30.0832 63.3808 29.7366C64.0341 29.3899 64.7675 29.2166 65.5808 29.2166C66.2341 29.2166 66.8541 29.3566 67.4408 29.6366C68.0408 29.9166 68.5075 30.3032 68.8408 30.7966L68.7608 31.4566V22.3566H70.6008V37.8366H68.7408V35.7766L68.9408 36.2966C68.5541 36.8032 68.0541 37.2232 67.4408 37.5566C66.8275 37.8766 66.1275 38.0366 65.3408 38.0366ZM65.9208 36.4566C66.4141 36.4566 66.8541 36.3699 67.2408 36.1966C67.6275 36.0099 67.9475 35.7566 68.2008 35.4366C68.4541 35.1166 68.6341 34.7366 68.7408 34.2966V32.7366C68.6341 32.3366 68.4408 31.9899 68.1608 31.6966C67.8941 31.3899 67.5675 31.1499 67.1808 30.9766C66.8075 30.7899 66.3875 30.6966 65.9208 30.6966C65.4141 30.6966 64.9475 30.8232 64.5208 31.0766C64.1075 31.3166 63.7741 31.6499 63.5208 32.0766C63.2675 32.5032 63.1408 32.9966 63.1408 33.5566C63.1408 34.1032 63.2675 34.5966 63.5208 35.0366C63.7741 35.4632 64.1141 35.8099 64.5408 36.0766C64.9675 36.3299 65.4275 36.4566 65.9208 36.4566Z" fill="black"/>
</svg>
