<svg width="38" height="38" viewBox="0 0 38 38" fill="none" xmlns="http://www.w3.org/2000/svg">
<g filter="url(#filter0_d_19_77)">
<path d="M19 0C20.9891 0 22.8968 0.790176 24.3033 2.1967C25.7098 3.60322 26.5 5.51088 26.5 7.5C26.5 9.48912 25.7098 11.3968 24.3033 12.8033C22.8968 14.2098 20.9891 15 19 15C17.0109 15 15.1032 14.2098 13.6967 12.8033C12.2902 11.3968 11.5 9.48912 11.5 7.5C11.5 5.51088 12.2902 3.60322 13.6967 2.1967C15.1032 0.790176 17.0109 0 19 0ZM19 18.75C27.2875 18.75 34 22.1063 34 26.25V30H4V26.25C4 22.1063 10.7125 18.75 19 18.75Z" fill="black"/>
</g>
<defs>
<filter id="filter0_d_19_77" x="0" y="0" width="38" height="38" filterUnits="userSpaceOnUse" color-interpolation-filters="sRGB">
<feFlood flood-opacity="0" result="BackgroundImageFix"/>
<feColorMatrix in="SourceAlpha" type="matrix" values="0 0 0 0 0 0 0 0 0 0 0 0 0 0 0 0 0 0 127 0" result="hardAlpha"/>
<feOffset dy="4"/>
<feGaussianBlur stdDeviation="2"/>
<feComposite in2="hardAlpha" operator="out"/>
<feColorMatrix type="matrix" values="0 0 0 0 0 0 0 0 0 0 0 0 0 0 0 0 0 0 0.25 0"/>
<feBlend mode="normal" in2="BackgroundImageFix" result="effect1_dropShadow_19_77"/>
<feBlend mode="normal" in="SourceGraphic" in2="effect1_dropShadow_19_77" result="shape"/>
</filter>
</defs>
</svg>
